<?xml version="1.0" encoding="utf-8"?>
<!-- Generator: Adobe Illustrator 26.2.1, SVG Export Plug-In . SVG Version: 6.00 Build 0)  -->
<svg version="1.1" id="Layer_1" xmlns="http://www.w3.org/2000/svg" xmlns:xlink="http://www.w3.org/1999/xlink" x="0px" y="0px"
	 viewBox="0 0 563.35 163.87" style="enable-background:new 0 0 563.35 163.87;" xml:space="preserve">
<style type="text/css">
	.st0{fill:#008739;}
	.st1{clip-path:url(#SVGID_00000166641137923389046390000017805244321971196304_);}
	.st2{fill-rule:evenodd;clip-rule:evenodd;fill:#0F4990;}
	.st3{fill:#0F4990;}
</style>
<g>
	<g>
		<g>
			<g>
				<g>
					<path class="st0" d="M163.05,128.96c0.06,0,0.19-0.1,0.14-0.15c-0.09-0.1-0.24-0.11-0.38-0.12c-0.02,0,0.02,0.06,0,0.07
						c-0.05,0.02-0.1,0.04-0.16,0.06C162.8,128.86,162.96,128.96,163.05,128.96"/>
				</g>
			</g>
			<g>
				<g>
					<path class="st0" d="M163.62,107.89c0.01-0.01-0.01-0.07-0.02-0.06c-0.13,0.08-0.59,0.16-0.48,0.64
						c0.02,0.05,0.1,0.15,0.14,0.19c0.06,0.07,0.09,0.07,0.14,0.15c0,0,0.02,0.48,0.2,0.55c0.13,0.05,0.18-0.26,0.17-0.4
						c-0.01-0.09-0.18-0.08-0.21-0.17c-0.02-0.05,0.1-0.04,0.12-0.08c0.03-0.05-0.12-0.2-0.17-0.29c-0.01-0.02,0.01-0.05,0.01-0.07
						C163.55,108.18,163.6,108.05,163.62,107.89"/>
				</g>
			</g>
			<g>
				<g>
					<path class="st0" d="M151.69,104.41c0.19,0.03,0.38-0.14,0.56-0.2c0,0,0.37,0.03,0.32-0.07c-0.11-0.23-0.8-0.13-0.91-0.03
						C151.59,104.16,151.59,104.39,151.69,104.41"/>
				</g>
			</g>
			<g>
				<g>
					<path class="st0" d="M163.85,109.32c-0.32,0.26-0.18,0.52,0.01,0.7c0.15,0.14,0.55,0.09,0.83,0.12
						c0.06,0.01,0.46,0.02,0.25-0.12c-0.09-0.07-0.22-0.04-0.32-0.07c-0.13-0.04-0.25-0.11-0.37-0.18c-0.14-0.08-0.3-0.25-0.36-0.41
						C163.88,109.33,163.88,109.32,163.85,109.32"/>
				</g>
			</g>
			<g>
				<g>
					<path class="st0" d="M147.28,110.12c-0.05,0-0.15-0.04-0.15,0.02c-0.02,0.12,0.18,0.25,0.1,0.35c-0.07,0.09-0.21-0.1-0.32-0.07
						c-0.1,0.03-0.14,0.15-0.22,0.23c-0.11,0.12-0.24,0.22-0.32,0.36c-0.02,0.03,0.09-0.03,0.1,0.01c0.01,0.09-0.53,0.53-0.54,0.54
						c-0.03,0.05,0.01,0.12,0.01,0.18c0,0.02,0.01,0.04,0,0.05c-0.07,0.07-0.17,0.11-0.23,0.19c-0.02,0.02,0.07,0.05,0.05,0.04
						c-0.02,0-0.16-0.13-0.14,0.03c0,0.04,0.06,0.05,0.06,0.09c0,0.07-0.02,0.15-0.08,0.2c-0.03,0.03-0.15-0.03-0.13,0.01
						c0.07,0.09,0.17,0.16,0.27,0.2c0.07,0.02,0.17-0.08,0.2-0.01c0.08,0.21-0.36,0.37-0.4,0.4c-0.1,0.06,0.13,0.29,0.24,0.24
						c0.2-0.07,0.27-0.34,0.44-0.48c0.03-0.02,0.03,0.1,0.06,0.08c0.07-0.04,0.08-0.15,0.15-0.2c0.02-0.02,0.02,0.06,0.04,0.05
						c0.1-0.05,0.19-0.14,0.28-0.21c0.22-0.16,0.41-0.37,0.64-0.47c0.05-0.02,0.02,0.19,0.05,0.15c0.07-0.08,0.01-0.24,0.09-0.3
						c0.05-0.04,0.12,0.12,0.18,0.08c0.11-0.08,0.09-0.28,0.2-0.34c0.11-0.07,0.25,0.02,0.37,0.01c0.03-0.01,0.04-0.09,0.08-0.08
						c0.05,0.01,0.05,0.15,0.09,0.13c0.14-0.04,0.22-0.21,0.35-0.26c0.03-0.02,0.03,0.06,0.04,0.09c0.03,0.06,0.07,0.12,0.1,0.18
						c0,0,0.24,0,0.36-0.04c0.14-0.05,0.24-0.17,0.37-0.24c0.01-0.01,0.04,0.02,0.05,0.01c0.04-0.02,0.07-0.09,0.11-0.1
						c0.06-0.02,0.14,0.05,0.2,0.01c0.1-0.08,0.1-0.32,0.22-0.31c0.94,0.07,0.37,0.55,1.02,0.33c0.15-0.05,0.27-0.16,0.41-0.21
						c0.03-0.01,0.05,0.06,0.08,0.06c0.11-0.01,0.41-0.02,0.33-0.1c-0.22-0.21-0.6-0.17-0.83-0.37c-0.1-0.09,0.28,0.05,0.39-0.02
						c0.06-0.04-0.04-0.19,0.02-0.23c0.11-0.06,0.22-0.04,0.31-0.02c0.03,0.26,0.06,0.52,0.2,0.45c0.06-0.03,0.08-0.18,0.13-0.14
						c0.05,0.04-0.11,0.1-0.1,0.16c0,0.05,0.1,0.06,0.12,0.02c0.07-0.09,0.48-0.64,0.17-0.86c-0.06-0.04-0.14,0.09-0.21,0.07
						c-0.04-0.02,0.07-0.06,0.09-0.1c0.05-0.15-0.01-0.36,0.11-0.45c0.1-0.07,0.24,0.1,0.37,0.11c0.05,0,0.09-0.12,0.13-0.08
						c0.02,0.03-0.04,0.65,0.32,0.27c0.11-0.12,0-0.37,0.13-0.45c0.1-0.07,0.27,0.25,0.33,0.14c0.08-0.11-0.27-0.24-0.2-0.35
						c0.07-0.12,0.3,0.12,0.4,0.03c0.11-0.1,0.03-0.29,0.05-0.43c0.01-0.05-0.02-0.14,0.02-0.14c0.13,0,0.24,0.13,0.37,0.15
						c0.03,0,0.1-0.02,0.09-0.06c-0.03-0.12-0.21-0.22-0.18-0.34c0.03-0.09,0.66-0.5,0.84-0.63c0.15-0.05,0.3-0.1,0.45-0.16
						c0.08-0.03,0.31-0.05,0.24-0.08c-0.2-0.1-0.42-0.1-0.64-0.12c-0.05,0-0.09,0.04-0.14,0.05c-0.03,0.01-0.14,0.06-0.11,0.03
						c0.19-0.11,0.74-0.2,0.2-0.48c-0.09-0.05-0.25,0.08-0.3-0.01c-0.05-0.07,0.15-0.11,0.23-0.1c0.13,0.01,0.24,0.12,0.37,0.14
						c0.1,0.01,0.22,0.02,0.29-0.05c0.05-0.05,0.03-0.18-0.03-0.21c-0.03-0.01-0.06-0.02-0.09-0.03c0.04,0.01,0.11,0.02,0.1-0.01
						c-0.18-0.36-0.42-0.16-0.75-0.12c-0.1,0.01-0.16-0.18-0.25-0.17c-0.15,0.02-0.24,0.2-0.39,0.23c-0.55,0.09,0-0.34-0.27-0.46
						c-0.11-0.05-0.19,0.19-0.31,0.18c-0.11-0.01-0.14-0.19-0.24-0.21c-0.81-0.18-0.36,0-0.79,0.18c-0.37,0.16-0.1-0.21-0.59-0.19
						c-0.35,0.01-0.48,0.3-0.47,0.3c0.04,0.05,0.13,0.03,0.16,0.08c0.02,0.03-0.06,0.07-0.09,0.06c-0.1-0.04-0.17-0.2-0.28-0.2
						c-0.12,0-0.19,0.12-0.28,0.18c-0.05,0.03-0.16,0.05-0.14,0.11c0.09,0.35,0.41,0.07,0.16,0.46c-0.26,0.42-0.13,0.09-0.38,0.3
						c-0.1,0.08-0.17,0.21-0.27,0.28c-0.08,0.06-0.19,0.09-0.28,0.15c-0.08,0.05-0.18,0.09-0.24,0.16
						c-0.02,0.02,0.04,0.06,0.01,0.07c-0.2,0.11-0.48,0.08-0.64,0.25c-0.1,0.1,0.38-0.15,0.42-0.01c0.1,0.39-0.34,0.34-0.49,0.46
						c-0.08,0.06-0.15,0.13-0.2,0.22c0,0.01,0,0.01,0.01,0.01c-0.09-0.02-0.19-0.06-0.26,0c-0.06,0.05,0.18,0.12,0.13,0.17
						c-0.18,0.17-0.41,0.29-0.64,0.35c-0.1,0.03-0.22-0.2-0.3-0.12c-0.09,0.09,0.15,0.3,0.06,0.38c-0.08,0.07-0.07-0.23-0.17-0.29
						c-0.04-0.03-0.03,0.12-0.08,0.14c-0.1,0.05-0.29-0.07-0.32,0.04c-0.04,0.13,0.33,0.27,0.22,0.32c-0.12,0.06-0.16-0.29-0.3-0.28
						c-0.13,0.01-0.17,0.21-0.27,0.31c0,0-0.02,0.01-0.03,0.01 M149.24,109.07c0.02,0,0.03,0,0.02,0
						C149.27,109.08,149.26,109.08,149.24,109.07 M155.39,106.63c0.1,0.02,0.19,0.09,0.29,0.12c-0.17-0.04-0.36-0.01-0.52-0.07
						C155.09,106.66,155.31,106.62,155.39,106.63"/>
				</g>
			</g>
			<g>
				<g>
					<path class="st0" d="M151.07,104.77c0.02-0.01-0.05,0.01-0.08,0.02c-0.17,0.03-0.34,0.07-0.52,0.09
						c-0.02,0-0.08-0.01-0.06-0.02c0.13-0.04,0.27-0.04,0.39-0.09c0.17-0.06,0.38-0.21,0.52-0.31c0,0,0.14-0.12,0.13-0.2
						c-0.01-0.05-0.09,0.06-0.15,0.07c-0.11,0.03-0.23,0-0.35,0.03c-0.12,0.04-0.21,0.14-0.32,0.19c-0.11,0.06-0.44,0.26-0.36,0.16
						c0.12-0.15,0.36-0.17,0.49-0.32c0.07-0.08-0.19,0.04-0.28,0.07c-0.13,0.05-0.25,0.14-0.39,0.19c-0.08,0.03-0.18,0.01-0.25,0.05
						c-0.12,0.09-0.18,0.26-0.3,0.36c-0.1,0.08-0.23,0.08-0.34,0.14c-0.08,0.04-0.28,0.09-0.22,0.16c0.15,0.2,0.54-0.09,0.65-0.15
						C150.08,104.98,150.62,105.03,151.07,104.77"/>
				</g>
			</g>
			<g>
				<g>
					<path class="st0" d="M145.12,109.91c0.05-0.01,0.11-0.01,0.16-0.03c0.31-0.12,0.51-0.45,0.74-0.7
						c0.13-0.15,0.14-0.11,0.31-0.25c0.11-0.1,0.18-0.32,0.31-0.29c0.12,0.02,0.17,0.26,0.11,0.38c-0.06,0.13-0.26,0.13-0.37,0.21
						c-0.05,0.03-0.07,0.1-0.11,0.14c-0.04,0.04-0.17,0.1-0.12,0.1c0.23,0.01,0.63-0.27,0.8-0.32c0.03-0.01,0.02,0.11,0.04,0.08
						c0.09-0.12,0.11-0.28,0.2-0.41c0.09-0.14,0.26-0.22,0.33-0.38c0.03-0.06-0.2,0.12-0.19,0.05c0.02-0.1,0.14-0.13,0.21-0.19
						c0,0,0.11-0.26,0.23-0.31c0.08-0.04,0.17,0.17,0.25,0.11c0.08-0.05-0.02-0.23,0.04-0.3c0.13-0.16,0.66,0.3,0.62-0.25
						c-0.01-0.14-0.51,0.14-0.41,0.04c0.19-0.18,0.5-0.16,0.71-0.31c0.07-0.06-0.2,0.06-0.27-0.01c-0.05-0.04,0.05-0.12,0.09-0.16
						c0.12-0.09,0.27-0.17,0.41-0.21c0.03-0.01,0.06,0.06,0.08,0.04c0.09-0.05,0.27-0.12,0.23-0.22c-0.04-0.12-0.42-0.04-0.34-0.14
						c0.12-0.16,0.38-0.09,0.56-0.15c0.09-0.03,0.26-0.02,0.26-0.12c0-0.11-0.16-0.16-0.26-0.17c-0.33-0.05-0.46,0.21-0.77,0.26
						c-0.03,0.01-0.06-0.09-0.02-0.1c0.26-0.11,0.54-0.17,0.82-0.22c0.11-0.02,0.44,0.07,0.34,0.02c-0.37-0.21-0.65-0.15-1.01-0.01
						c-0.14,0.06-0.36,0.07-0.43,0.22c-0.05,0.11-0.06,0.25-0.13,0.35c-0.08,0.11-0.35,0.12-0.31,0.24c0,0.01,0.01,0.02,0.02,0.02
						c-0.03-0.02-0.13,0.09-0.09,0.08c0.04-0.01,0.06-0.05,0.09-0.07c0.09,0.05,0.36-0.15,0.37-0.03c0.02,0.19-0.83,0.43-0.91,0.52
						c-0.1,0.12-0.12,0.29-0.23,0.4c-0.12,0.13-0.27,0.2-0.42,0.27c-0.07,0.03-0.18-0.03-0.23,0.04c-0.07,0.11,0.03,0.3-0.06,0.39
						c-0.07,0.07-0.19-0.03-0.29-0.05c-0.17-0.04-0.38-0.01-0.51-0.13c-0.06-0.06,0.21-0.06,0.22-0.15
						c0.01-0.08-0.11-0.18-0.18-0.13c-0.1,0.06-0.16,0.46-0.25,0.58c-0.13,0.19-0.4,0.29-0.51,0.49c-0.05,0.09-0.05,0.2-0.11,0.28
						c-0.05,0.09-0.15,0.13-0.2,0.21c-0.07,0.12-0.19,0.28-0.12,0.39C144.87,110.1,145.01,109.93,145.12,109.91"/>
				</g>
			</g>
			<g>
				<g>
					<path class="st0" d="M150.55,113.6c0,0,0.08,0.17,0.15,0.22c0.12,0.08,0.24,0.17,0.38,0.16c0.27-0.02,0.5-0.2,0.77-0.26
						c0.06-0.01,0.13,0.08,0.18,0.05c0.1-0.05,0.13-0.19,0.21-0.27c0.07-0.06,0.21-0.07,0.22-0.16c0.04-0.69-0.54-0.25-0.81-0.31
						c-0.09-0.03-0.06-0.22-0.15-0.26c-0.05-0.02-0.04,0.12-0.09,0.14c-0.05,0.03-0.11-0.03-0.17-0.02
						c-0.04,0.01-0.05,0.07-0.09,0.07c-0.03,0-0.03-0.08-0.05-0.07c-0.07,0.03-0.16,0.24-0.14,0.17c0.03-0.14,0.19-0.24,0.19-0.38
						c0-0.11-0.08-0.29-0.19-0.28c-0.16,0.01-0.25,0.15-0.39,0.24c-0.02,0.01-0.08,0.09-0.07,0.08c0.08,0.09,0.21,0.1,0.32,0.14
						c0.03,0.02,0.14,0.02,0.11,0.04C150.63,113.03,149.95,112.97,150.55,113.6"/>
				</g>
			</g>
			<g>
				<g>
					<path class="st0" d="M152.44,121.54c0.06,0.04,0.11,0.14,0.17,0.12c0.08-0.04,0.03-0.22,0.11-0.24
						c0.12-0.02,0.21,0.15,0.33,0.14c0.14-0.01,0.24-0.18,0.38-0.19c0.17-0.01,0.33,0.09,0.49,0.14c0.03,0.01,0.06,0.07,0.07,0.04
						c0.07-0.12,0.04-0.29,0.12-0.4c0.31-0.41,0.41,0.07,0.55-0.53c0.08-0.35-0.26-0.17-0.36-0.31c-0.09-0.13-0.07-0.31-0.11-0.46
						c-0.03-0.13-0.05-0.27-0.1-0.4c-0.07-0.19-0.18-0.36-0.24-0.55c-0.01-0.03,0.03-0.08,0.01-0.11c-0.1-0.11-0.24-0.18-0.36-0.25
						c-0.06-0.03-0.18,0-0.19-0.06c-0.06-0.29,1.06-0.2,0.73-0.69c-0.14-0.21-0.5-0.01-0.71-0.12c-0.23-0.12,0.55-0.17,0.43-0.4
						c-0.08-0.16-0.33-0.3-0.48-0.22c-0.09,0.05-0.04,0.3-0.13,0.4c-0.05,0.05-0.16-0.09-0.21-0.04c-0.05,0.06,0.04,0.16,0.05,0.24
						c0,0.06-0.02,0.12-0.05,0.17c-0.04,0.11-0.19,0.2-0.16,0.31c0.02,0.08,0.22-0.16,0.21-0.08c-0.02,0.17-0.4,0.35-0.39,0.52
						c0,0.01,0.13,0.02,0.12-0.07c0.02-0.03,0.04-0.08,0.06-0.11c0.05-0.05,0.15-0.17,0.19-0.11c0.07,0.13-0.03,0.29-0.01,0.43
						c0.02,0.14,0.08,0.28,0.1,0.42c0.05,0.23,0.07,0.48,0.13,0.71c0.01,0.05,0.14,0.12,0.09,0.13c-0.2,0.06-0.57-0.27-0.69,0.17
						c-0.08,0.27,0.5,0.12,0.08,0.35c-0.12,0.07-0.36,0.01-0.4,0.15c-0.04,0.12,0.21,0.11,0.3,0.17c0.11,0.07,0.19,0.2,0.31,0.21
						c0.12,0.01,0.27-0.27,0.33-0.16c0.07,0.11-0.15,0.23-0.26,0.27c-0.13,0.04-0.28-0.09-0.41-0.05
						C151.97,121.28,152.24,121.39,152.44,121.54"/>
				</g>
			</g>
			<g>
				<g>
					<path class="st0" d="M151.79,120.45c0.06,0,0.14,0.01,0.17-0.04c0.14-0.22,0.21-0.48,0.28-0.74c0.02-0.07-0.05-0.14-0.04-0.21
						c0-0.04,0.04-0.06,0.06-0.09c0,0,0.25-0.22,0.27-0.37c0.02-0.11-0.08-0.22-0.18-0.27c-0.2-0.1-0.76,0.44-0.76,0.44
						c-0.21,0.02-0.34-0.32-0.49-0.05c-0.78,1.35,0.38-0.6,0.22,0.55c-0.02,0.17-0.4,0.11-0.42,0.28c-0.01,0.13,0.38-0.11,0.39,0.03
						c0,0.14-0.25,0.13-0.38,0.15c-0.08,0.02-0.31-0.04-0.24-0.01C151.04,120.33,151.42,120.45,151.79,120.45"/>
				</g>
			</g>
			<g>
				<g>
					<path class="st0" d="M139.97,116.96c-0.02,0.04,0.02,0.11,0.05,0.09c0.1-0.08,0.16-0.21,0.23-0.31
						c0.02-0.03,0.02-0.07,0.05-0.1c0.05-0.05,0.26-0.08,0.2-0.12c-0.08-0.05-0.24,0.18-0.26,0.09c0-0.01,0-0.01,0-0.01
						c-0.03,0.05-0.06,0.11-0.09,0.16C140.1,116.83,140,116.87,139.97,116.96"/>
				</g>
			</g>
			<g>
				<g>
					<path class="st0" d="M156.81,127.05c0.14-0.14,0.2-0.34,0.27-0.54c-0.09,0.07-0.25,0.05-0.3,0.16
						C156.72,126.78,156.72,127.13,156.81,127.05"/>
				</g>
			</g>
			<g>
				<g>
					<path class="st0" d="M156.65,128.66c0.06,0.05,0.14,0.11,0.21,0.1c0.42-0.11,0.39-0.32,0.4-0.7c0.01-0.07-0.08-0.02-0.05-0.11
						c0.02-0.06,0.11-0.1,0.1-0.17c-0.04-0.16-0.17-0.29-0.24-0.43c0,0-0.22,0.68-0.34,1.11
						C156.71,128.47,156.63,128.65,156.65,128.66"/>
				</g>
			</g>
			<g>
				<g>
					<path class="st0" d="M159.55,129.15c-0.13,0.03-0.27,0.06-0.4,0.1c-0.04,0.02-0.07,0.07-0.11,0.05
						c-0.21-0.06-0.19-0.29-0.46-0.12c-0.08,0.05-0.18,0.15-0.14,0.23c0.06,0.12,0.23,0.11,0.34,0.18c0.09,0.06,0.17,0.14,0.27,0.19
						c0.07,0.03,0.16,0,0.23,0.04c0.15,0.09,0.08,0.36,0.39,0.23c0.29-0.12-0.03-0.38-0.02-0.5c0.02-0.17,0.14-0.31,0.22-0.47
						C159.86,129.09,159.65,129.13,159.55,129.15"/>
				</g>
			</g>
			<g>
				<g>
					<path class="st0" d="M167.27,129.79c0.26,0.6,0.47,0,0.58-0.1c0.05-0.04,0.14,0,0.18-0.05c0.07-0.14,0.07-0.31,0.1-0.46
						c0,0-0.16,0.19-0.26,0.24c-0.11,0.06-0.27,0.04-0.37,0.11c-0.04,0.02,0.04,0.11,0.01,0.15
						C167.45,129.74,167.24,129.7,167.27,129.79"/>
				</g>
			</g>
			<g>
				<g>
					<path class="st0" d="M176.36,130.27c-0.86,0.73,0.87-1.7,0.22-0.42c0,0-0.11,0.07-0.14,0.13
						C176.39,130.06,176.44,130.21,176.36,130.27"/>
				</g>
			</g>
			<g>
				<g>
					<path class="st0" d="M173.48,146.73c-0.16,0.17-0.35,0.29-0.49,0.48c-0.01,0.01,0.06-0.01,0.05,0
						c-0.14,0.14-0.28,0.27-0.44,0.4c-0.02,0.02,0.06-0.08,0.04-0.07c-0.09,0.08-0.16,0.18-0.26,0.25c-0.2,0.17-0.48,0.3-0.69,0.48
						c-0.13,0.11-0.26,0.23-0.37,0.36c-0.07,0.08-0.09,0.19-0.16,0.27c-0.03,0.04-0.64,0.49-0.67,0.52l0.86-0.52
						c0.68-0.5,1.26-1.22,1.96-1.71c0.11-0.08,0.13-0.07,0.18-0.13c0.12-0.12,0.52-0.46,0.32-0.77
						C173.81,146.29,173.53,146.68,173.48,146.73"/>
				</g>
			</g>
			<g>
				<g>
					<path class="st0" d="M136.6,116.73c0.05,0,0.08-0.07,0.11-0.13c0.05-0.1,0.07-0.22,0.13-0.32c0.02-0.04,0.1-0.11,0.11-0.1
						c0.04-0.08,0.08-0.16,0.11-0.24c0,0.02-0.02,0.03-0.02,0.05c0,0.01,0,0.01,0.01,0.01c-0.01,0.02-0.02,0.03-0.02,0.04
						c-0.01,0.12,0.18-0.16,0.25-0.26c0.06-0.08,0.08-0.13,0.1-0.16c0,0.01,0,0.02,0.01,0.02c0.08,0.12,0.21-0.2,0.3-0.31
						c0.02-0.03,0.01-0.11,0.04-0.09c0.06,0.04,0.08,0.12,0.12,0.19c0.01,0.02,0.01,0.09,0.03,0.08c0.05-0.04,0.37-0.46,0.41-0.46
						c0.15-0.02,0.28,0.13,0.43,0.1c0.08-0.01,0.08-0.2,0.15-0.18c0.08,0.02-0.03,0.21,0.04,0.24c0.09,0.04,0.23-0.21,0.26-0.11
						c0.03,0.1-0.19,0.12-0.22,0.23c-0.03,0.09,0.13,0.25,0.04,0.28c-0.11,0.04-0.21-0.18-0.33-0.17c-0.05,0-0.31,0.42-0.26,0.47
						c0.11,0.1,0.28,0,0.42,0.04c0.08,0.02,0.19,0.22,0.23,0.14c0.11-0.21,0.02-0.48,0.07-0.71c0.02-0.12,0.07-0.23,0.12-0.34
						c0.06-0.13,0.12-0.27,0.22-0.39c0.05-0.06,0.18-0.03,0.22-0.11c0.06-0.14-0.07-0.37,0.05-0.46c0.09-0.06,0.1,0.25,0.21,0.28
						c0.07,0.02,0.12-0.11,0.14-0.18c0.05-0.09,0.16-0.24,0.08-0.29c-0.21-0.12-0.49-0.05-0.73-0.1c-0.03-0.01-0.09-0.04-0.07-0.05
						c0.12-0.09,0.3-0.08,0.4-0.18c0.08-0.08,0-0.32,0.11-0.32c0.14,0,0.15,0.28,0.28,0.31c0.11,0.03,0.26-0.27,0.32-0.16
						c0.11,0.18-0.04,0.92,0.19,1.04c0.07,0.04,0.16,0.01,0.24-0.02c0.07-0.02,0.11-0.14,0.19-0.12c0.22,0.05,0.15,0.23,0.17,0.29
						c-0.01,0-0.02-0.01-0.03-0.01c-0.1,0.03-0.18,0.13-0.27,0.19c-0.17,0.11-0.6,0.42-0.77,0.5c-0.03,0.01,0.08-0.06,0.07-0.09
						c-0.01-0.03-0.09-0.02-0.1,0.01c-0.02,0.06,0.07,0.12,0.05,0.17c-0.1,0.23-0.44,0.28-0.21,0.62c0.04,0.06,0.23-0.05,0.21,0.02
						c-0.04,0.15-0.23,0.21-0.32,0.34c-0.02,0.04-0.03,0.13,0.01,0.15c0.09,0.03,0.18-0.02,0.27-0.06c0.02-0.01,0.03-0.03,0.05-0.05
						c-0.14-0.7,0.36,0.08,0.42-0.15c0.02-0.07-0.15-0.06-0.16-0.13c0-0.05,0.11,0.02,0.14-0.01c0.02-0.03-0.05-0.1-0.02-0.14
						c0.06-0.06,0.23,0,0.23-0.08c0-0.11-0.21-0.11-0.24-0.22c-0.04-0.14-0.02-0.32,0.06-0.43c0.04-0.05,0.64-0.44,0.78-0.57
						c-0.03-0.01-0.06-0.03-0.09-0.05c0.05-0.02,0.14-0.07,0.3-0.18c0.7-0.46,0.15-0.21,0.3-0.71c0.04-0.12,0.12-0.21,0.2-0.31
						c-0.09-0.23,0.2-0.02,0.22-0.09c0.04-0.14-0.11-0.29-0.09-0.43c0.01-0.09,0.16-0.12,0.19-0.21c0.01-0.05-0.15,0.06-0.13,0.02
						c0.12-0.19,0.3-0.32,0.42-0.49c0.07-0.1,0.1-0.22,0.17-0.33c0.01-0.02-0.03,0.06-0.01,0.06c0.27-0.01,0.28-0.25,0.45-0.44
						c0.06-0.07,0.18-0.07,0.22-0.16c0.02-0.04-0.14-0.04-0.11-0.08c0.1-0.13,0.28-0.16,0.39-0.27c0.03-0.03,0-0.08,0.02-0.12
						c0.08-0.19,0.58,0.3,0.37-0.38c-0.04-0.13-0.25,0.11-0.37,0.17c-0.06,0.03-0.12,0.09-0.19,0.09c-0.18,0-0.38,0.02-0.54-0.09
						c-0.08-0.06,0.23-0.01,0.31-0.07c0.12-0.08,0.21-0.22,0.29-0.34c0.01-0.01-0.02-0.05-0.01-0.06c0.08-0.07,0.19-0.09,0.26-0.17
						c0.04-0.05-0.01-0.15,0.04-0.18c0.11-0.05,0.25,0.05,0.34-0.03c0.08-0.06,0.04-0.22,0.09-0.32c0.04-0.08,0.11-0.13,0.17-0.18
						c0.02-0.02,0.06,0.01,0.07-0.02c0.09-0.16,0.13-0.35,0.21-0.52c0.01-0.02,0.04,0.01,0.05,0c0.06-0.08,0.13-0.17,0.16-0.27
						c0.01-0.03-0.07-0.03-0.09-0.01c-0.12,0.07-0.22,0.17-0.34,0.25c-0.13,0.08-0.39,0.25-0.57,0.32
						c-0.04,0.01-0.42,0.13-0.52,0.23c-0.34,0.34-0.19,0.32-0.58,0.59c-0.18,0.12-0.35,0.28-0.56,0.34
						c-0.08,0.03-0.16-0.12-0.25-0.09c-0.15,0.04-0.21,0.24-0.33,0.34c-0.09,0.07-0.18,0.13-0.27,0.2c-0.1,0.09-0.18,0.21-0.29,0.29
						c-0.04,0.03-0.1,0.01-0.15,0.02c-0.13,0.03-0.34,0.4-0.3,0.27c0.08-0.27,0.25-0.29,0.39-0.46c0.32-0.39,0.54-0.61,0.94-0.91
						c0.1-0.08,0.25-0.11,0.31-0.22c0.06-0.11,0.08-0.25,0.14-0.37c0.02-0.03,0.07-0.02,0.1-0.05c0.07-0.05,0.12-0.12,0.18-0.18
						c0.08-0.09,0.14-0.19,0.22-0.28c0.21-0.22,0.56-0.39,0.7-0.67c0.02-0.05,0.02-0.11,0.05-0.14c0.02-0.03,0.07-0.02,0.1-0.04
						c0.18-0.11,0.49-0.3,0.64-0.47c0.02-0.02-0.1,0.06-0.08,0.04c0.13-0.1,0.39-0.28,0.55-0.32c0.24-0.06,0.49-0.1,0.74-0.14
						c0.02,0,0.04,0.03,0.06,0.03c0.12-0.07,0.23-0.16,0.35-0.25c0.06-0.05,0.11-0.12,0.17-0.17c0.04-0.03,0.14-0.1,0.13-0.06
						c-0.1,0.2-0.37,0.32-0.38,0.54c0,0.13,0.25-0.03,0.36-0.09c0.02-0.01,0.03-0.04,0.05-0.05c0,0,0,0.01,0,0.01
						c0.02,0.03,0.03,0.05,0.05,0.08c-0.2,0.08-0.39,0.18-0.59,0.24c-0.27,0.09-0.15-0.29-0.44,0.27c-0.05,0.11-0.14,0.3-0.04,0.37
						c0.09,0.06,0.17-0.15,0.26-0.22c0.13-0.09,0.27-0.18,0.41-0.27c0,0,0.12-0.17,0.2-0.23c0.07-0.05,0.15-0.09,0.22-0.13
						c0,0,0.01,0.01,0.01,0.01c-0.02,0.01-0.05,0.02-0.05,0.05c-0.01,0.03,0.03,0.01,0.07-0.02c0.16,0.2,0.07-0.29,0.45-0.22
						c0.1,0.02-0.13,0.21-0.09,0.31c0.03,0.06,0.13-0.03,0.19-0.06c0.12-0.06,0.21-0.14,0.32-0.21c0.05-0.02,0.09-0.07,0.14-0.07
						c0.03,0,0.02,0.08,0.05,0.08c0.1,0,0.39-0.17,0.46-0.24c0.08-0.08,0.3-0.23,0.2-0.28c-0.13-0.07-0.27,0.1-0.41,0.16
						c-0.04,0.02-0.07,0.07-0.11,0.06c-0.02,0,0.06-0.07,0.03-0.07c-0.17,0.01-0.34,0.07-0.51,0.11c-0.02,0-0.08,0.01-0.06,0
						c0.16-0.09,0.32-0.19,0.49-0.26c0.01,0,0.02,0.05,0.02,0.03c0.02-0.05,0-0.13,0.05-0.17c0.07-0.06,0.18-0.06,0.27-0.1
						c0.11-0.05,0.22-0.1,0.32-0.16c0,0,0-0.01,0-0.02c0.04-0.04,0.08-0.09,0.14-0.1c0.04,0,0.09,0.06,0.13,0.05
						c0.13-0.04,0.28-0.07,0.37-0.19c0.03-0.05-0.04-0.15-0.1-0.17c-0.08-0.02-0.14,0.07-0.21,0.09c-0.15,0.07-0.32,0.11-0.46,0.19
						c-0.02,0.02,0.11,0.02,0.08,0.03c-0.28,0.06-0.56,0.13-0.84,0.14c-0.11,0,0.19-0.08,0.28-0.12c0.16-0.06,0.26-0.05,0.42-0.13
						c0.07-0.04,0.27-0.14,0.19-0.14c-0.15,0.02-0.26,0.15-0.41,0.15c-0.07,0,0.11-0.09,0.16-0.14c0.09-0.08,0.16-0.17,0.26-0.24
						c0.16-0.12,0.77-0.33,0.8-0.39c0.08-0.14-0.33-0.03-0.31-0.05c0.12-0.05,0.24-0.07,0.35-0.13c0.02-0.01,0.02-0.05,0.03-0.05
						c0.09-0.08,0.36-0.22,0.44-0.25c0.1-0.03,0.22-0.02,0.32-0.05c0.09-0.03,0.16-0.09,0.24-0.13c0.97-0.42,0.13,0.18,1.03-0.18
						c0.11-0.04,0.19-0.17,0.3-0.21c0.1-0.03,0.21,0.05,0.3,0.02c0.87-0.23-0.18,0.04,0.57-0.23c0.23-0.08,0.57-0.21,0.82-0.23
						c0.89-0.07,1.9-0.5,2.92-0.61c-2.04,0.12-3.45,0.4-5.4,1.07l-0.36,0.13c-0.37,0.12-0.78,0.25-1.14,0.4
						c-0.06,0.02-0.13,0.19-0.19,0.21c-0.4,0.16-0.57,0-0.94,0.17c-0.07,0.03-0.14,0.07-0.2,0.1c-0.3,0.14-0.59,0.28-0.88,0.43
						c-0.06,0.03-0.13,0.07-0.19,0.1c-0.3,0.16-0.59,0.32-0.88,0.49c-0.05,0.03-0.1,0.06-0.15,0.09c-0.3,0.18-0.59,0.37-0.88,0.56
						c-0.04,0.03-0.08,0.05-0.12,0.08c-0.3,0.2-0.59,0.41-0.88,0.62c-0.03,0.02-0.06,0.05-0.1,0.07c-0.29,0.22-0.58,0.44-0.86,0.68
						c-0.03,0.02-0.06,0.05-0.09,0.08c-0.28,0.23-0.55,0.47-0.82,0.71c-0.04,0.03-0.07,0.07-0.11,0.1c-0.25,0.23-0.5,0.47-0.74,0.71
						c-0.05,0.05-0.1,0.1-0.15,0.15c-0.22,0.22-0.43,0.45-0.64,0.68c-0.07,0.08-0.14,0.16-0.22,0.24c-0.18,0.2-0.35,0.41-0.52,0.62
						c-0.1,0.12-0.2,0.24-0.29,0.36c-0.13,0.17-0.26,0.34-0.39,0.51c-0.13,0.17-0.25,0.33-0.38,0.51c-0.08,0.12-0.16,0.24-0.25,0.36
						c-0.16,0.23-0.32,0.46-0.47,0.7c-0.03,0.05-0.06,0.1-0.09,0.15c-0.56,0.88-1.06,1.8-1.51,2.75c0.04-0.06,0.08-0.12,0.13-0.17
						C136.59,116.59,136.57,116.74,136.6,116.73 M146.65,106.84c0.07-0.07,0.16-0.1,0.23-0.15c0.06-0.04,0.08-0.16,0.16-0.16
						c0.06,0.01-0.07,0.12-0.11,0.16c-0.18,0.17-0.28,0.22-0.33,0.25C146.61,106.9,146.63,106.87,146.65,106.84 M137.16,115.72
						c0,0,0,0.01-0.01,0.01C137.16,115.72,137.17,115.7,137.16,115.72"/>
				</g>
			</g>
			<g>
				<g>
					<path class="st0" d="M176,138.53c-0.05-0.12,0-0.26,0.02-0.39c0.01-0.09,0.1-0.18,0.06-0.26c-0.02-0.05-0.12,0.01-0.16,0.06
						c-0.1,0.11-0.14,0.26-0.22,0.37c-0.08,0.11-0.19,0.2-0.29,0.3c-0.32,0.33,0.26-0.28-0.24,0.16c-0.05,0.05-0.08,0.12-0.13,0.17
						c-0.07,0.07-0.18,0.08-0.25,0.15c-0.13,0.13-0.2,0.32-0.34,0.43c-0.07,0.06-0.17,0.05-0.25,0.07c-0.32,0.1-0.63,0.18-0.94,0.29
						c-0.1,0.04-0.31,0.26-0.29,0.14c0.04-0.17,0.28-0.23,0.34-0.4c0.07-0.19-0.83-0.66-0.91-0.68c-0.14-0.04-0.28,0.08-0.42,0.05
						c-0.07-0.02-0.05-0.2-0.12-0.19c-0.07,0.01,0.01,0.25-0.06,0.22c-0.26-0.11-0.29-0.92-0.55-1.17c-0.1-0.09-0.24-0.13-0.37-0.18
						c-0.05-0.02-0.12,0.03-0.15-0.01c-0.08-0.14-0.07-0.31-0.11-0.46c-0.05-0.19-0.13-0.37-0.15-0.56c0-0.04,0.09-0.02,0.08-0.05
						c-0.03-0.09-0.14-0.13-0.19-0.22c-0.03-0.06,0.02-0.16-0.02-0.21c-0.08-0.1-0.21-0.14-0.32-0.2c-0.09-0.06-0.25-0.05-0.29-0.16
						c-0.06-0.13,0.09-0.3,0.03-0.44c-0.05-0.12-0.24-0.11-0.33-0.21c-0.32-0.34-0.15-0.3-0.33-0.54c-0.16-0.22-0.16-0.04-0.33-0.41
						c-0.02-0.04,0.03-0.1,0.01-0.15c-0.08-0.16-0.22-0.28-0.3-0.43c-0.01-0.02,0.06-0.01,0.05-0.02c-0.29-0.34-0.54-0.27-0.68-0.8
						c-0.01-0.06,0.12-0.07,0.17-0.04c0.33,0.18,0.3,0.93,0.78,0.78c0.09-0.03,0.11-0.13,0.13-0.24c0,0.01,0,0.02,0.01,0.02
						c0.07,0.07,0.19-0.11,0.27-0.07c0.14,0.06,0.36,0.43,0.46,0.57c0.07,0.09,0.13,0.19,0.21,0.26c0.02,0.02,0.07-0.01,0.09,0.01
						c0.03,0.04,0,0.11,0.03,0.14c0.07,0.09,0.18,0.14,0.26,0.22c0.13,0.13,0.24,0.28,0.38,0.4c0.07,0.06,0.18,0.06,0.25,0.13
						c0.15,0.17,0.3,0.37,0.38,0.58c0.03,0.09-0.07,0.18-0.05,0.28c0.02,0.13,0.07,0.26,0.14,0.36c0.33,0.5,0.22,0.09,0.71,0.37
						c0.27,0.16,0.19,0.5,0.5,0.73c0.06,0.05,0.19,0,0.22,0.08c0.12,0.3,0.1,0.65,0.19,0.96c0.02,0.05,0.11,0.02,0.13,0.06
						c0.08,0.15,0.13,0.31,0.16,0.48c0,0.01-0.07,0.46,0.11,0.4c0.67-0.2,0.38-0.21,0.63-0.66c0.05-0.08,0.07,0.01,0.1-0.02
						c0.02-0.02-0.24,0.27,0.89-0.92c0.07-0.07,0.18-0.08,0.24-0.15c0.1-0.12,0.12-0.29,0.21-0.42c0.11-0.16,0.26-0.31,0.38-0.46
						c0.17-0.22,0.4-0.37,0.51-0.65c0.04-0.1-0.03-0.21,0-0.31c0.05-0.14,0.43-0.71,0.51-0.78c0.09-0.08,0.22-0.13,0.28-0.24
						c0.07-0.13,0-0.31,0.06-0.45c0.05-0.11,0.19-0.16,0.24-0.27c0.07-0.15,0.04-0.32,0.08-0.48c0.2-0.7,0.45-1.57,0.49-2.31
						c0.01-0.24-0.32,0.14-0.82-0.15c-0.21-0.12-0.25-0.77-0.43-0.6c-0.06,0.06-0.14,0.12-0.18,0.2c-0.03,0.07-0.01,0.16-0.02,0.23
						c-0.04,0.22-0.09,0.43-0.16,0.65c-0.04,0.14-0.7,0.66-0.76,0.68c-0.41,0.14-0.12-0.39-0.14-0.4c-0.06-0.09-0.25-0.13-0.31-0.04
						c-0.07,0.09,0.21,0.32,0.1,0.34c-0.31,0.05-0.29-0.69-0.41-0.8c-0.11-0.11-0.25-0.2-0.39-0.25c-0.05-0.02-0.1,0.08-0.15,0.05
						c-0.11-0.1-0.14-0.28-0.24-0.39c-0.1-0.11-0.29-0.14-0.35-0.28c-0.03-0.07,0.14-0.1,0.14-0.18c0-0.08-0.15-0.12-0.13-0.2
						c0.01-0.07,0.14-0.04,0.2-0.09c0.21-0.17,0.17-0.33,0.46-0.4c0.08-0.02,0.4,0.38,0.48,0.52c0.05,0.09,0.07,0.24,0.17,0.28
						c0.13,0.06,0.28-0.05,0.41-0.03c0.31,0.05,0.45,0.34,0.75,0.08c0.15-0.14,0.34-0.85,0.51-0.8c0.18,0.06,0.16,0.38,0.29,0.52
						c0.03,0.03,0.34-0.12,0.48-0.23c0.13-0.11,0.21-0.28,0.35-0.38c0.08-0.06,0.19-0.08,0.26-0.15c0.02-0.02,0.62-0.73,0.63-0.74
						c0.02-0.03-0.01-0.07,0-0.09c0.05-0.11,0.14-0.2,0.19-0.32c0.03-0.07,0-0.19,0.07-0.22c0.06-0.02,0.07,0.11,0.12,0.14
						c0.13,0.08,0.27,0.14,0.41,0.21c0.09,0.05,0.18,0.2,0.26,0.14c0.13-0.09,0.04-0.36,0.16-0.45c0.09-0.06,0.03,0.22,0.01,0.33
						c-0.01,0.06-0.03,0.12-0.05,0.18c0.12-0.28,0.23-0.58,0.44-0.78c0.11-0.1,0.01,0.31,0.04,0.46c0.06,0.32,0.13,0.64,0.21,0.95
						c0.01,0.04,0-0.19,0.01-0.14c0.06,0.19,0.09,0.39,0.13,0.58c0.02,0.13,0.02,0.27,0.07,0.4c0.16,0.55,0.19,0.33,0.26,0.73
						c0.07,0.42,0.12,0.84,0.19,1.26c0,0.02,0.02,0.09,0.03,0.07c0.42-2.89,0.25-4.06,0.09-7.45c0-0.08-0.05-0.15-0.06-0.24
						c-0.03-0.35-0.04-0.71-0.07-1.06c0-0.04,0.01-0.1,0.02-0.16l0-0.03c0.13,0.15,0.12,0.06,0.11,0.03
						c-0.02-0.09-0.03-0.32-0.05-0.41c-0.34-1.61-0.68-3.09-1.29-4.62c-1.06-2.66-2.92-5.47-4.91-7.64
						c-3.25-3.54-7.63-6.05-12.22-7.06c-1.09-0.24-1.96-0.35-2.91-0.42c0.79,0.08,1.57,0.2,2.33,0.45c0.13,0.04,0.74,0.19,0.85,0.24
						c0.09,0.05,0.16,0.15,0.24,0.23c0.24,0.21,0.58,0.26,0.88,0.35c0.03,0.01,0.06-0.03,0.08-0.02c0.12,0.05,0.23,0.13,0.35,0.21
						c0.06,0.04,0.1,0.12,0.17,0.16c0,0,0.57,0.14,0.58,0.15c0.03,0.15-0.16,0.26-0.18,0.4c-0.01,0.07,0.11,0.12,0.08,0.18
						c-0.02,0.05-0.19-0.07-0.15-0.04c0.13,0.14,0.37,0.17,0.44,0.34c0.04,0.11-0.22-0.07-0.32-0.05c-0.04,0.01,0.04,0.08,0.07,0.11
						c0.06,0.05,0.14,0.06,0.2,0.11c0.09,0.08,0.16,0.19,0.24,0.27c0.01,0.01,0.03,0.02,0.04,0.03c-0.37-0.23-1.01-0.64-1.25-0.68
						c-0.02,0-0.98,0-0.85,0.29c0.16,0.35,0.47,0.38,0.78,0.4c-0.02,0-0.03,0.04-0.04,0.06c-0.07,0.09,0.1,0.17,0.15,0.27
						c0.05,0.11,0.06,0.24,0.14,0.33c0.1,0.12,0.27,0.17,0.38,0.29c0.02,0.02-0.11,0.03-0.08,0.04c0.13,0.05,0.26,0.09,0.39,0.13
						c-0.07,0.12-0.08,0.3-0.03,0.43c0.04,0.1,0.18,0.09,0.28,0.11c0.23,0.05,0.48,0.04,0.72,0.11c0.08,0.02,0.13,0.1,0.21,0.15
						c0.15,0.09,0.34,0.11,0.47,0.23c0.06,0.06-0.17,0-0.26-0.03c-0.03-0.01-0.84-0.48-0.98-0.18c-0.22,0.46,0.67,0.36,0.67,0.37
						c0.07,0.11-0.23,0.1-0.35,0.11c-0.07,0-0.49-0.31-0.54-0.33c-0.05-0.03-0.23-0.08-0.19-0.04c0.09,0.09,0.24,0.1,0.34,0.2
						c0.08,0.08,0.09,0.24,0.19,0.31c0.11,0.08,0.27,0.06,0.4,0.1c0.04,0.02,0.07,0.05,0.1,0.08c0.09,0.07,0.38,0.4,0.53,0.38
						c0.13-0.02,0.2-0.22,0.34-0.24c0.44-0.08,0.19,0.23,0.49,0.32c0.06,0.02,0.06-0.03,0.01,0.01c-0.06,0.05,0.04,0.03-0.04,0.02
						c-0.03-0.01-0.42-0.37-0.55-0.29c-0.07,0.05-0.06,0.18-0.01,0.24c0.1,0.15,0.33,0.15,0.46,0.28c0.5,0.48,0.06,0.07,0.29,0.52
						c0.02,0.04,0.15,0.06,0.11,0.1c-0.21,0.29-0.49,0.19-0.5,0.14c0-0.1,0.15-0.15,0.14-0.25c-0.02-0.24-0.28-0.55-0.47-0.65
						c-0.09-0.05-0.2-0.01-0.29-0.05c-0.2-0.1-0.38-0.23-0.56-0.36c-0.08-0.06-0.14-0.15-0.23-0.19c-0.1-0.05-0.23-0.03-0.33-0.09
						c-0.15-0.09-0.34-0.44-0.46-0.39c-0.62,0.22,0.05,0.4,0.13,0.57c0.05,0.09,0.05,0.21,0.12,0.29c0.05,0.05,0.13,0.02,0.19,0.04
						c0.27,0.13,0.53,0.31,0.81,0.44c-0.13,0.06-0.27,0.14-0.41,0.18c-0.36,0.09-0.3-0.16-0.65,0.1c-0.17,0.12,0.13,0.14,0.22,0.23
						c0.06,0.06,0.07,0.16,0.12,0.24c0.03,0.05,0.15,0.09,0.12,0.13c-0.09,0.08-0.25,0.05-0.36,0.09c-0.37,0.14-0.14,0.09-0.39,0.38
						c-0.03,0.03,0.03-0.06,0.02-0.1c-0.03-0.09-0.05-0.22-0.13-0.26c-0.05-0.03-0.09,0.08-0.12,0.13
						c-0.03,0.05-0.02,0.12-0.04,0.17c-0.09,0.22-0.22,0.43-0.3,0.66c-0.05,0.13,0.04,0.33-0.07,0.4c-0.1,0.07-0.27-0.02-0.32-0.14
						c-0.04-0.1,0.24-0.23,0.14-0.29c-0.12-0.08-0.35-0.03-0.44,0.1c-0.17,0.24,0.42,0.45,0.44,0.49c0.09,0.22-0.36,0.18-0.36,0.2
						c-0.05,0.04,0.02,0.13,0,0.19c-0.05,0.12-0.14,0.21-0.19,0.34c-0.06,0.15,0.39,0.18,0.34,0.33c-0.05,0.16-0.29,0.17-0.45,0.2
						c-0.04,0.01,0.05-0.1,0.01-0.12c-0.11-0.06-0.27-0.11-0.39-0.06c-0.06,0.03-0.02,0.17,0.04,0.21c0.11,0.08,0.29,0.03,0.4,0.12
						c0.06,0.05,0.09,0.23,0.01,0.25c-0.18,0.04-0.37-0.08-0.55-0.12c-0.06-0.01-0.14-0.01-0.19-0.07c-0.11-0.1-0.21-0.21-0.27-0.35
						c-0.02-0.06,0.09-0.12,0.06-0.18c-0.05-0.1-0.33-0.1-0.26-0.18c0.13-0.15,0.37-0.12,0.56-0.16c0.04-0.01,0.08,0.02,0.12,0.03
						c0.02,0.01,0.06,0.03,0.08,0c0.26-0.4,0.56-0.61,0.14-0.85c-0.09-0.05-0.19-0.04-0.28-0.07c-0.31-0.09-0.6-0.28-0.92-0.29
						c-0.13,0-0.26-0.02-0.38,0.01c-0.04,0.01-0.02,0.1-0.06,0.1c-0.14-0.02-0.25-0.13-0.38-0.17c-0.06-0.02-0.14,0.03-0.19-0.01
						c-0.12-0.09-0.16-0.27-0.28-0.36c-0.05-0.04-0.13-0.02-0.19-0.03c-0.09-0.02-0.18-0.08-0.28-0.07
						c-0.85,0.07,0.14,0.14-0.59,0.6c-0.04,0.02-0.08,0.02-0.12,0.02c0.01,0.02-0.01,0.06-0.07,0.09c-0.07,0.04-0.15-0.06-0.23-0.06
						c-0.07,0-0.14,0.04-0.2,0.06c-0.56,0.29,0.03,0.14-0.35,0.76c-0.04,0.07-0.16-0.05-0.23,0c-0.03,0.02,0.07,0.06,0.07,0.1
						c-0.06,0.67-0.05,0.2-0.4,0.39c-0.06,0.03-0.02,0.13-0.07,0.17c-0.04,0.05-0.15,0-0.17,0.06c-0.02,0.08,0.11,0.13,0.1,0.2
						c-0.01,0.16-0.07,0.3-0.13,0.45c-0.49,1.05,0.18-0.62-0.35,0.29c-0.02,0.04,0.1,0.09,0.06,0.11c-0.33,0.16-0.01-0.28-0.27,0.02
						c-0.09,0.1-0.33,0.24-0.23,0.32c0.12,0.1,0.27-0.16,0.42-0.17c0.05,0,0.08,0.13,0.04,0.16c-0.12,0.08-0.29,0.01-0.42,0.07
						c-0.09,0.04-0.12,0.16-0.2,0.21c-0.06,0.04-0.13,0.01-0.19,0.04c-0.03,0.01-0.02,0.07-0.05,0.07
						c-0.09,0.03-0.21-0.05-0.27,0.02c-0.11,0.1-0.05,0.34-0.17,0.42c-0.09,0.07-0.21-0.1-0.32-0.08c-0.04,0.01-0.04,0.13,0,0.14
						c0.13,0.06,0.38-0.1,0.43,0.04c0.1,0.28-0.43,0.2-0.52,0.29c-0.03,0.02,0.03,0.08,0.06,0.08c0.4,0.04,0.27-0.07,0.56-0.07
						c0.03,0,0.14,0.02,0.1,0.03c-0.23,0.07-0.47,0.11-0.7,0.17c-0.04,0-0.07,0-0.05,0.02c0.07,0.1,0.2,0.15,0.32,0.19
						c0.08,0.02,0.25-0.1,0.25-0.01c0.01,0.4-1.02,0.43-0.53,0.89c0.19,0.18,0.48,0.2,0.72,0.31c0.02,0.01,0.03,0.07,0.05,0.05
						c0.12-0.11,0.22-0.26,0.33-0.39c0.03-0.04,0.04-0.1,0.07-0.13c0.08-0.08,0.19-0.12,0.26-0.21c0.04-0.05,0.01-0.25,0.03-0.19
						c0.05,0.11,0,0.24,0.05,0.35c0.08,0.17,0.27,0.28,0.33,0.46c0.04,0.11-0.07,0.23-0.05,0.34c0.31,1.52,0.05-0.19,0.37,0.57
						c0.03,0.07,0.03,0.17-0.01,0.22c-0.02,0.03-0.11-0.08-0.11-0.03c0,0.04,0.01,0.09,0.02,0.13c-0.03,0.01-0.24,0.11-0.36,0.16
						c-0.05,0.01-0.15-0.04-0.15,0.01c-0.01,0.11,0.03,0.33,0.12,0.29c0.18-0.07,0.26-0.31,0.39-0.46c0.02,0.12,0.05,0.25,0.11,0.36
						c0.03,0.06,0.43,0,0.43-0.01c0.1-0.11,0.04-0.32,0.13-0.44c0.14-0.16,0.39-0.18,0.52-0.35c0.05-0.07-0.04-0.19-0.03-0.28
						c0-0.04,0.07-0.06,0.06-0.1c-0.01-0.08-0.11-0.14-0.11-0.23c0-0.03,0.09,0.04,0.11,0.01c0.03-0.07,0.02-0.16-0.02-0.23
						c-0.04-0.08-0.23-0.09-0.19-0.16c0.06-0.1,0.23-0.03,0.33-0.08c0.1-0.05,0.22-0.11,0.27-0.22c0.02-0.05-0.13,0.01-0.16-0.03
						c-0.03-0.04-0.05-0.09-0.07-0.14c0.01,0.03,0.03,0.06,0.05,0.07c0.07,0.04,0.32-0.21,0.33-0.22c0.06-0.09-0.33-0.37-0.37-0.42
						c-0.03-0.06-0.3-0.8-0.27-0.94c0.02-0.09,0.15-0.11,0.21-0.18c0.1-0.12,0.13-0.28,0.24-0.39c0.07-0.08,0.2-0.06,0.27-0.14
						c0.47-0.52,0.05-0.17-0.01-0.51c-0.01-0.06,0.1-0.1,0.1-0.16c0-0.04-0.09-0.03-0.1-0.07c-0.03-0.33,0.43-0.32,0.59-0.3
						c0.14,0.02,0.44,0.11,0.39,0.37c-0.02,0.07-0.14,0.04-0.18,0.09c-0.07,0.12-0.06,0.28-0.12,0.4c-0.04,0.08-0.09,0.15-0.15,0.21
						c-0.03,0.03-0.09,0.03-0.1,0.07c-0.01,0.04,0.06,0.08,0.03,0.12c-0.06,0.11-0.24,0.15-0.25,0.27c-0.01,0.3,0.14,0.57,0.21,0.85
						c0.02,0.08,0.01,0.18,0.07,0.24c0,0,0.33,0.07,0.42,0.19c0.03,0.04,0,0.17,0.05,0.16c0.15-0.05,0.26-0.17,0.4-0.24
						c0.04-0.02,0.1,0.01,0.14-0.02c0.12-0.07,0.2-0.22,0.33-0.28c0.03-0.02,0.03,0.09,0.06,0.08c0.1-0.01,0.18-0.13,0.28-0.12
						c0.24,0.01,0.5,0.06,0.71,0.19c0.09,0.05-0.21,0.03-0.3,0.06c-0.08,0.03-0.15,0.1-0.23,0.13c-0.41,0.15-0.61,0.11-0.95,0.34
						c-0.03,0.02-0.02,0.08-0.04,0.09c-0.05,0.04-0.15-0.01-0.17,0.05c-0.01,0.05,0.1,0.41,0.17,0.45c0.07,0.03,0.19-0.08,0.24-0.02
						c0.06,0.07-0.03,0.18-0.02,0.27c0.01,0.11,0.16,0.22,0.1,0.3c-0.39,0.55-0.39-0.57-0.81-0.08c-0.05,0.05-0.04,0.13-0.06,0.21
						c-0.03,0.15-0.08,0.31-0.06,0.46c0.02,0.22,0.11,0.42,0.16,0.63c0.01,0.04,0.08,0.11,0.04,0.13c-0.13,0.06-0.29-0.03-0.41,0.04
						c-0.08,0.05,0,0.23-0.08,0.28c-0.21,0.13-0.26-0.19-0.43-0.17c-0.16,0.01-0.3,0.11-0.44,0.16c-0.04,0.02-0.09,0.01-0.12,0.04
						c-0.05,0.04-0.06,0.13-0.11,0.16c-0.08,0.05-0.18,0.04-0.27,0.08c-0.12,0.05-0.25,0.09-0.35,0.17
						c-0.02,0.02,0.04,0.09,0.02,0.07c-0.21-0.12-0.36-0.35-0.58-0.4c-0.08-0.02-0.06,0.17-0.13,0.22
						c-0.31,0.18-0.53,0.11-0.74-0.19c-0.03-0.05,0.07-0.13,0.04-0.18c-0.03-0.05-0.15,0.03-0.16-0.03
						c-0.04-0.16-0.02-0.33,0.04-0.49c0.02-0.04,0.11,0.04,0.15,0.01c0.06-0.08,0.03-0.23,0.1-0.3c0.03-0.03,0.08,0.08,0.12,0.06
						c0.18-0.09,0-0.76-0.04-0.86c-0.03-0.06-0.13,0.04-0.18,0.09c-0.07,0.06-0.17,0.13-0.17,0.22c0,0.06,0.2,0.01,0.17,0.06
						c-0.05,0.09-0.2,0.06-0.27,0.13c-0.08,0.07-0.38,0.45-0.33,0.67c0.06,0.24,0.2,0.45,0.26,0.69c0.02,0.07-0.06,0.14-0.03,0.2
						c0.07,0.11,0.43,0.2,0.31,0.24c-0.14,0.04-0.24-0.24-0.38-0.22c-0.09,0.02,0.03,0.27-0.07,0.31c-0.08,0.04-0.08-0.22-0.17-0.21
						c-0.12,0.01-0.15,0.23-0.27,0.26c-0.13,0.03-0.26-0.13-0.4-0.11c-0.11,0.02-0.18,0.13-0.27,0.19
						c-0.02,0.01-0.04,0.02-0.05,0.03c-0.04,0.01-0.1-0.05-0.12-0.01c-0.08,0.12-0.08,0.28-0.14,0.41
						c-0.04,0.08-0.12,0.13-0.14,0.22c-0.01,0.07,0.11,0.17,0.05,0.2c-0.08,0.05-0.2-0.08-0.29-0.05c-0.13,0.04-0.21,0.17-0.33,0.23
						c-0.11,0.05-0.28-0.01-0.35,0.09c-0.08,0.1,0.06,0.29-0.02,0.39c-0.09,0.11-0.27,0.08-0.39,0.14
						c-0.08,0.04-0.16,0.11-0.22,0.18c-0.03,0.02-0.01,0.1-0.05,0.1c-0.13,0.01-0.29,0.02-0.4-0.05c-0.05-0.04,0.04-0.16,0-0.22
						c-0.06-0.06-0.19-0.12-0.24-0.05c-0.34,0.58,0.61,0.06-0.11,0.59c-0.08,0.06-0.19,0.11-0.28,0.08
						c-0.09-0.03-0.07-0.2-0.15-0.24c-0.02-0.01-0.6,0.07-0.59,0.11c0.06,0.28,0.27,0.51,0.48,0.7c0.05,0.05,0.25-0.22,0.28,0.02
						c0.01,0.05-0.11,0.08-0.08,0.11c0.07,0.07,0.25-0.01,0.29,0.09c0.03,0.09-0.17,0.11-0.18,0.2c-0.02,0.07,0.06,0.14,0.09,0.22
						c0.06,0.19,0.16,0.37,0.18,0.58c0.07,0.57-0.03,0.39-0.19,0.73c-0.06,0.14-0.08,0.29-0.15,0.42c-0.08,0.15-0.33-0.02-0.5-0.04
						c-0.04,0-0.07,0.07-0.12,0.06c-0.08-0.02-0.12-0.13-0.2-0.15c-0.12-0.03-0.24,0.04-0.36,0.01c-0.32-0.07-0.63-0.21-0.95-0.29
						c-0.01,0-0.01,0.05-0.02,0.04c-0.1-0.07-0.17-0.24-0.28-0.23c-1.1,0.04-0.37,0.32-0.45,0.76c-0.06,0.29-0.15,0.58-0.2,0.87
						c0,0.02,0.03,0.04,0.02,0.05c-0.07,0.21-0.26,0.56-0.41,0.71c-0.02,0.02-0.08-0.02-0.1,0.01c-0.05,0.11-0.12,0.24-0.11,0.36
						c0.05,0.52,0.25,0.83,0.67,1.09c0.07,0.05,0.19-0.06,0.24,0c0.09,0.08,0.05,0.25,0.12,0.36c0.11,0.16,0.26,0.29,0.39,0.43h0.01
						c0.45-0.05,0.9-0.13,1.34-0.16c0.04,0,0.07,0.1,0.1,0.07c0.11-0.09,0.14-0.27,0.26-0.35c0.12-0.08,0.31,0.01,0.42-0.08
						c0.08-0.06,0-0.22,0.06-0.31c0.07-0.11,0.24-0.12,0.32-0.24c0,0-0.09-0.52-0.09-0.54c0.02-0.1,0.11-0.17,0.17-0.24
						c0.24-0.31,0.35-0.52,0.72-0.65c0.33-0.12,0.27,0.17,0.63-0.27c0.09-0.11,0.12-0.26,0.14-0.41c0.02-0.13-0.12-0.33-0.01-0.41
						c0.22-0.17,0.53-0.17,0.81-0.19c0.04-0.01-0.03,0.08-0.01,0.12c0.03,0.05,0.09,0.07,0.13,0.09c0.11,0.05,0.22,0.16,0.32,0.12
						c0.2-0.06,0.34-0.26,0.52-0.38c0.08-0.06,0.21-0.04,0.29-0.08c0.11-0.09,0.15-0.3,0.29-0.31c0.46-0.04,0.63,0.39,0.71,0.73
						c0.01,0.06-0.04,0.13-0.01,0.18c0.06,0.12,0.14,0.24,0.25,0.32c0.06,0.05,0.15,0.01,0.22,0.06c0.05,0.04,0.05,0.12,0.09,0.16
						c0.14,0.15,0.33,0.23,0.47,0.38c0.02,0.03,0.02,0.09,0.06,0.1c0.09,0.02,0.2-0.07,0.28-0.03c0.09,0.05,0.07,0.21,0.15,0.26
						c0.09,0.07,0.23,0,0.31,0.07c0.11,0.09,0.12,0.27,0.23,0.37c0.04,0.04,0.14-0.06,0.17-0.01c0.13,0.19,0.23,0.42,0.28,0.65
						c0.02,0.13-0.36,0.45-0.23,0.56c0.21,0.19,0.34-0.14,0.4-0.28c0.03-0.07-0.04-0.16,0-0.22c0.06-0.08,0.2-0.06,0.26-0.15
						c0.23-0.39-0.5-0.1-0.3-0.63c0.12-0.31,0.24-0.36,0.53-0.15c0.06,0.05,0.05,0.15,0.09,0.2c0.07,0.08,0.3,0.14,0.19-0.14
						c-0.18-0.48-0.77-0.46-1.13-0.69c-0.27-0.17-0.59-0.38-0.81-0.62c-0.14-0.15-0.1-0.49-0.23-0.59
						c-0.16-0.13-0.67-0.34-0.57-0.68c0.08-0.26,0.3-0.46,0.5-0.64c0.03-0.03,0.03,0.08,0.07,0.11c0.1,0.07,0.26,0.07,0.34,0.16
						c0.1,0.11,0.1,0.3,0.19,0.42c0.05,0.08,0.2,0.08,0.23,0.18c0.02,0.05-0.18,0-0.15,0.06c0.33,0.75,0.92,0.11,1.11,0.73
						c0,0.01,0,0.02-0.01,0.03c0.14,0.04,0.28,0.09,0.42,0.15c0.02,0.01-0.05,0.04-0.03,0.06c0.14,0.38,0.34,0.74,0.48,1.12
						c0.01,0.03-0.1,0-0.08,0.02c0.08,0.09,0.19,0.12,0.27,0.2c0.05,0.05,0.05,0.14,0.08,0.2c0.05,0.08,0.12,0.14,0.18,0.21
						c0.06,0.09,0.1,0.2,0.18,0.27c0.1,0.1,0.21,0.19,0.34,0.24c-0.07,0.04-0.11,0.13-0.12,0.31c-0.01,0.11,0.21,0.1,0.26,0.2
						c0.06,0.11-0.03,0.29,0.06,0.37c0.06,0.06,0.12-0.18,0.19-0.14c0.1,0.05,0.04,0.27,0.14,0.3c0.07,0.03,0.05-0.2,0.13-0.21
						c0.1,0,0.14,0.19,0.23,0.19c0.06,0-0.03-0.13-0.06-0.19c-0.07-0.15-0.2-0.28-0.23-0.45c-0.03-0.14,0.24-0.35,0.33-0.34
						c0.1,0.01,0.14,0.26,0.23,0.2c0.09-0.05,0.03-0.24-0.03-0.32c-0.05-0.07-0.33-0.23-0.48-0.26c-0.08-0.01-0.26,0.05-0.23-0.03
						c0.04-0.13,0.31-0.11,0.33-0.24c0.05-0.37-0.29-0.24-0.38-0.45c-0.03-0.08-0.12-0.23-0.04-0.26c0.19-0.08,0.48,0.34,0.62,0.22
						c0.06-0.05-0.15-0.18-0.09-0.24c0.07-0.06,0.29,0.17,0.24,0.09c-0.06-0.14-0.26-0.16-0.33-0.29c-0.03-0.05,0.11-0.01,0.17-0.02
						c0.09-0.03,0.19-0.07,0.27-0.12c0.05-0.03,0.07-0.12,0.12-0.12c0.13-0.01,0.29,0.01,0.39,0.1c0.1,0.09,0,0.34,0.13,0.39
						c0,0.02-0.01,0.04,0,0.06c0.01,0.24,0.05,0.34,0.09,0.38c0.02,0.08,0.05,0.16,0.11,0.18c0.05,0.01,0.01-0.09-0.02-0.16
						c0.1-0.03,0.21-0.14,0.3,0.17c0.02,0.07-0.14,0.09-0.12,0.15c0.02,0.07,0.24,0.02,0.21,0.08c-0.08,0.12-0.42,0.05-0.37,0.18
						c0.05,0.16,0.34,0,0.46,0.1c0.06,0.04-0.13,0.14-0.08,0.19c0.14,0.14,0.34,0.19,0.52,0.26c0.03,0.01,0.12-0.05,0.1-0.02
						c-0.11,0.11-0.33,0.13-0.37,0.29c-0.03,0.1,0.21,0.05,0.29,0.01c0.08-0.04,0.07-0.23,0.15-0.23c1.66,0.02-0.75,0.39,0.58,0.33
						c0.63-0.03,0-0.58,0.48-0.56c0.15,0.01,0.29,0.01,0.43,0.07c0.12,0.05,0.18,0.3,0.38,0.21c1.19-0.53-0.31,0,0.64-0.66
						c0.09-0.06,0.2,0.11,0.29,0.07c0.11-0.06,0.09-0.35,0.21-0.31c0.11,0.04-0.02,0.25-0.01,0.37c0.02,0.14,0.03,0.28,0.08,0.42
						c0.01,0.03,0.08,0.03,0.09,0.07c0.27,0.65,0.02,1.01-0.07,1.82c-0.02,0.16,0.02,0.59-0.15,0.68c-0.3,0.16-0.66,0.12-0.99,0.18
						c-0.13,0.02-0.26,0-0.38,0.07c-0.12,0.06-0.18,0.21-0.29,0.29c-0.04,0.03-0.1,0-0.14,0.03c-0.03,0.02-0.23,0.34-0.33,0.34
						c-0.43-0.01-0.86-0.08-1.28-0.12c-0.07-0.01-0.14-0.03-0.21-0.02c-0.09,0.02-0.17,0.13-0.27,0.12
						c-0.23-0.02-0.43-0.13-0.64-0.21c-0.01,0,0-0.02,0-0.03c-0.1-0.04-0.23,0.08-0.31,0.02c-0.07-0.06-0.04-0.21-0.12-0.27
						c-0.13-0.09-0.3-0.1-0.46-0.11c-0.12-0.02-0.68,0.21-0.71,0.32c-0.29,0.86,0.13,0.86-0.49,1.39c-0.19,0.16-0.49-0.2-0.56-0.23
						c-0.13-0.07-0.27-0.11-0.4-0.14c-0.28-0.06-0.71,0.05-0.91-0.27c-0.08-0.13-0.04-0.35-0.17-0.43c-1.28-0.82-0.5-0.07-1.36-0.21
						c-0.35-0.05-0.47-0.34-0.77-0.5c-0.05-0.03-0.13,0.04-0.18,0c-0.51-0.43,0.4-0.46,0.39-0.91c-0.01-0.1-0.34-0.46-0.33-0.52
						c0.18-0.55,0.77-0.45-0.26-0.73c-0.31-0.08-0.3,0.16-0.56,0.22c-0.12,0.03-0.26,0-0.39-0.01c-0.09,0-0.18,0.02-0.27,0
						c-0.11-0.02-0.2-0.11-0.31-0.11c-0.05,0-0.06,0.07-0.11,0.09c-0.13,0.06-0.27,0.15-0.41,0.15c-0.24-0.02-0.46-0.16-0.7-0.2
						c-0.33-0.06-1.28,0.06-1.55,0.24c-0.08,0.05-0.1,0.17-0.18,0.19c-0.12,0.04-0.25-0.06-0.37-0.01c-0.18,0.06-0.3,0.23-0.47,0.31
						c-0.22,0.1-0.35-0.23-0.5-0.27c-0.07-0.02-0.11,0.11-0.18,0.12c-0.03,0-0.48-0.02-0.6-0.13c-0.08-0.08-0.15-0.16-0.21-0.26
						c-0.03-0.08,0-0.46-0.27-0.18c-0.16,0.17-0.33,0.87-0.6,0.97c-0.24,0.09-0.53,0.05-0.73,0.21c-0.07,0.06-0.12,0.13-0.2,0.19
						c-0.06,0.05-0.15,0.07-0.2,0.13c-0.04,0.05,0,0.14-0.03,0.21c-0.06,0.1-0.19,0.15-0.22,0.26c-0.25,0.8,0.15,0.6-0.35,1.13
						c-0.19,0.2-0.73,0.47-0.97,0.52c-0.3,0.06-0.33-0.18-0.5,0.07c-0.08,0.12-0.09,0.28-0.19,0.37c-0.14,0.12-0.39,0.08-0.48,0.24
						c-0.07,0.13-0.15,0.25-0.21,0.39c-0.04,0.1-0.01,0.23-0.07,0.32c-0.09,0.11-0.23,0.16-0.35,0.23c-0.06,0.03-0.3,0.04-0.19,0.11
						c0.04,0.02,0.13-0.1,0.11-0.06c-0.06,0.15-0.16,0.28-0.24,0.41c-0.02,0.02-0.05,0.04-0.07,0.06c-0.04,0.06-0.04,0.14-0.09,0.19
						c-0.05,0.06-0.14,0.06-0.2,0.11c-0.02,0.02-0.02,0.07-0.02,0.1c-0.04,0.16-0.11,0.31-0.1,0.47c0,0.06,0.11,0.06,0.14,0.11
						c0.08,0.09,0.18,0.19,0.18,0.31c0,0.13-0.18,0.22-0.18,0.35c0,0.3,0.25,0.61,0.15,0.89c-0.06,0.16-0.16,0.29-0.22,0.45
						c-0.1,0.28,0.07,0.33-0.21,0.57c-0.08,0.07-0.22,0.01-0.28,0.09c-0.03,0.05,0.1,0.07,0.15,0.11c0.12,0.12,0.24,0.23,0.33,0.37
						c0.02,0.03-0.04,0.05-0.05,0.08c-0.02,0.05-0.05,0.1-0.04,0.15c0.01,0.05,0.04,0.1,0.07,0.14c0.02,0.03,0.11,0.03,0.1,0.07
						c-0.04,0.25-0.15-0.19-0.24-0.19c-0.06,0-0.04,0.13-0.01,0.18c0.13,0.18,0.32,0.28,0.47,0.43c0.05,0.05-0.11-0.09-0.16-0.11
						c-0.03-0.02-0.41-0.24-0.3,0c0.05,0.12,0.14,0.23,0.24,0.3c0.05,0.04,0.15-0.02,0.19,0.02c0.03,0.04-0.16,0.06-0.12,0.07
						c0.13,0.07,0.32-0.03,0.42,0.08c0.05,0.07-0.21,0.07-0.21,0.16c0,0.11,0.14,0.18,0.2,0.28c0.05,0.08,0.09,0.19,0.15,0.26
						c0.08,0.09,0.21,0.14,0.29,0.24c0.12,0.14,0.23,0.31,0.31,0.48c0.02,0.04-0.01,0.09,0,0.13c0.06,0.16,0.15,0.3,0.19,0.46
						c0.01,0.02-0.05,0.05-0.03,0.07c0.1,0.1,0.36,0.16,0.35,0.25c0,0.05-0.16-0.01-0.14,0.03c0.07,0.1,0.21,0.13,0.3,0.21
						c0.49,0.37-0.03-0.02,0.22,0.25c0.83,0.91-0.13-0.16,0.48,0.39c0.28,0.25,0.76,0.93,1.15,0.98c0.8,0.11,1.67,0.09,2.46,0.38
						c0.04,0.01,0.58,0.12,0.27,0.07c0.3,0.07,0.22,0.09,0.53,0.12c0.15,0.01,0.29-0.07,0.44-0.08c0.76-0.03,1.53-0.04,2.29-0.05
						c0.26,0,0.23,0.18,0.51,0.31c0.04,0.02,0.09-0.08,0.12-0.05c0.16,0.26-0.04,0.62,0.43,0.66c0.12,0.01,0.2-0.19,0.32-0.19
						c0.17-0.01,0.32,0.12,0.49,0.15c0.11,0.02,0.24,0.06,0.33,0c0.05-0.03-0.11-0.14-0.06-0.17c0.19-0.11,0.27,0.28,0.49,0.38
						c0.1,0.04,0.24-0.11,0.33-0.04c0.28,0.22,0.06,0.43,0.04,0.65c-0.02,0.16,0.05,0.32-0.01,0.47c-0.74,2.16,0.29-1.77-0.55,0.53
						c-0.03,0.08,0.09,0.13,0.14,0.19c0.04,0.07,0.08,0.14,0.13,0.2c0.01,0.01,0.02,0.01,0.03,0.02c-0.02-0.01-0.04-0.02-0.02-0.01
						c0.15,0.07,0.32,0.1,0.44,0.21c0.06,0.05-0.28-0.07-0.22-0.02c0.2,0.18,0.79,0.44,1.05,0.61c0.26,0.18-0.01,0.13,0.23,0.42
						c0.09,0.1,0.52,0.49,0.55,0.64c0.01,0.08-0.21,0.02-0.2,0.09c0.02,0.14,0.55,0.37,0.37,0.58c-0.11,0.12-0.28,0.17-0.42,0.25
						c-0.06,0.03-0.15,0.03-0.2,0.08c-0.08,0.09-0.1,0.22-0.19,0.31c-0.05,0.06-0.16,0.05-0.19,0.11c-0.04,0.06,0.01,0.15,0.01,0.22
						c0,0.04-0.02,0.09,0.01,0.11c0.1,0.07,0.23,0.08,0.34,0.13c0.25,0.1,0.5,0.21,0.75,0.32c0.03,0.01,0.06,0.01,0.06,0.03
						c0,0.02-0.06,0.04-0.04,0.04c0.39,0.11,0.79,0.18,1.19,0.27c0.42-0.04,0.83-0.09,1.25-0.16c1.36-0.25,2.46-0.56,3.37-0.87
						l0.05,0c0.65-0.22,1.24-0.53,1.87-0.81c0.1-0.04,0.48-0.17,0.55-0.26c0.09-0.11,0.1-0.29,0.19-0.39
						c0.06-0.08,0.17-0.07,0.25-0.11c0.36-0.19,0.5-0.32,0.8-0.52c0.55-0.38,1.42-0.68,1.79-1.29c0.08-0.12,0.16-0.24,0.22-0.37
						c0.03-0.08,0.01-0.18,0.05-0.25c0.04-0.09,0.13-0.13,0.17-0.21c0.01-0.01-0.04,0.02-0.06,0c-0.08-0.13-0.19-0.26-0.2-0.42
						c0-0.11,0.2-0.16,0.19-0.28c-0.01-0.08-0.23-0.02-0.22-0.1c0.02-0.26,0.39-0.56,0.53-0.76c0.05-0.08,0.08-0.17,0.14-0.25
						c0.02-0.02,0.06-0.02,0.08-0.06c0.04-0.06,0.02-0.14,0.07-0.19c0.1-0.11,0.24-0.17,0.33-0.28c0.02-0.02-0.03-0.06-0.01-0.09
						c0.05-0.05,0.12-0.05,0.18-0.09c0.14-0.12,0.2-0.32,0.31-0.47c0.33-0.44,0.71-0.87,1.05-1.3c0.21-0.26,0.46-0.48,0.67-0.75
						c0.28-0.35,0.55-0.78,0.77-1.19c0.15-0.28,0.32-0.59,0.44-0.9c0.11-0.29,0.19-0.6,0.31-0.88c0.12-0.27,0.29-0.55,0.35-0.84
						c0.03-0.12-0.01-0.26,0.03-0.38 M164.84,106.35c-0.13-0.02-0.14-0.13-0.25-0.16c0.14,0.01,0.28,0.03,0.4,0.08
						C165.04,106.29,164.89,106.35,164.84,106.35 M165.7,107.5c-0.03-0.01-0.1-0.12-0.12-0.15c0.13,0.04,0.24,0.07,0.33,0.11
						C165.98,107.49,165.77,107.53,165.7,107.5 M156.25,116.16c0.05-0.01,0.11-0.02,0.09-0.01
						C156.32,116.17,156.29,116.16,156.25,116.16 M161.63,115.21c0.05,0.21,0.18,0.4,0.17,0.61c-0.01,0.07-0.14,0.04-0.2,0.02
						c-0.04-0.02-0.05-0.09-0.06-0.14c-0.06-0.29-0.3-0.69-0.08-0.88c0.04-0.03,0.09,0.04,0.14,0.05c0.07,0.01,0.2-0.03,0.2,0.04
						c0.01,0.08-0.14,0.09-0.18,0.16C161.59,115.11,161.62,115.17,161.63,115.21 M162.82,128.71c0.02-0.01-0.02-0.07,0-0.07
						c0.14,0.02,0.29,0.02,0.38,0.13c0.05,0.05-0.08,0.15-0.14,0.15c-0.09,0-0.25-0.1-0.4-0.15
						C162.71,128.75,162.77,128.73,162.82,128.71 M163.33,116.09c-0.05,0.08-0.17-0.09-0.25-0.18c-0.05-0.05-0.09-0.09-0.14-0.14
						c-0.08-0.07-0.17-0.1-0.19-0.2c-0.02-0.12,0.03-0.3,0.11-0.3C163.19,115.27,163.73,115.48,163.33,116.09 M159.3,143.03
						c-0.16-0.22-0.39-0.51-0.17-0.58c0.24-0.08,0.1,0.1,0.16,0.18c0.03,0.04,0.1,0.03,0.14,0.06c0.04,0.03,0.05,0.1,0.09,0.11
						c0.05,0.01,0.09-0.05,0.15-0.05c0.12,0.01,0.23,0.06,0.34,0.08C159.79,142.94,159.46,143.22,159.3,143.03 M168.7,146.14
						c0.23-0.07,0.48-0.11,0.72-0.15c0.02,0,0.06,0.02,0.04,0.03c-0.11,0.09-0.25,0.12-0.36,0.22c-0.07,0.07-0.03,0.21-0.09,0.28
						c-0.08,0.09-0.23,0.13-0.28,0.24c-0.03,0.06,0.23,0.01,0.18,0.05c-0.06,0.06-0.14,0.1-0.21,0.15c-0.1,0.09-0.18,0.22-0.31,0.27
						c-0.04,0.02,0.03-0.13-0.01-0.14c-0.15-0.04-0.3,0.02-0.45,0.02C168.16,146.54,168.16,146.29,168.7,146.14 M168.96,133.09
						c0-0.01,0-0.02,0.01-0.03C168.99,133.03,168.98,133.05,168.96,133.09 M165.72,123.3c0.01,0.04-0.1,0.08-0.07,0.1
						c0.16,0.11,0.45,0.05,0.6-0.01c0.02-0.01,0.01-0.08,0.04-0.07c0.05,0.01,0.11,0.06,0.09,0.11c-0.03,0.08-0.48,0.25-0.37,0.42
						c0.08,0.12,0.31-0.02,0.42,0.07c0.07,0.05-0.08,0.47,0.13,0.37c0.1-0.05,0.15-0.17,0.24-0.24c0.06-0.05,0.15-0.04,0.21-0.1
						c0.05-0.06,0.03-0.18,0.1-0.23c0.08-0.06,0.37,0.03,0.3-0.04c-0.1-0.11-0.3-0.03-0.43-0.1c-0.07-0.04-0.31-0.32-0.28-0.38
						c0.25-0.59,0.19-0.16,0.57-0.44c0.05-0.03,0.01-0.11,0.05-0.16c0.1-0.11,0.22-0.2,0.35-0.26c0.11-0.06,0.27-0.22,0.35-0.12
						c0.27,0.3-0.42,0.4-0.44,0.42c-0.19,0.23,0.3,0.02,0.38,0.26c0.03,0.07-0.18,0-0.2,0.07c-0.04,0.14,0.12,0.3,0.07,0.43
						c-0.06,0.13-0.44,0.08-0.36,0.19c0.14,0.2,0.44,0.19,0.68,0.26c0.07,0.02,0.14-0.02,0.21,0c0.18,0.07,0.32,0.23,0.5,0.29
						c0.46,0.14,0.74,0.13,0.93,0.66c0.03,0.07,0.01,0.16-0.03,0.22c-0.1,0.18-0.2,0.38-0.35,0.5c-0.08,0.06-0.19-0.02-0.28-0.02
						c-0.43,0.02-0.85,0.05-1.27,0.09c-0.09,0.01-0.19,0.09-0.28,0.07c-0.08-0.02-0.1-0.19-0.18-0.18c-0.15,0-0.27,0.14-0.41,0.19
						c-0.05,0.02-0.12,0-0.17,0.03c-0.28,0.14-0.37,0.42-0.63,0.59c-0.15,0.09-0.32,0.17-0.49,0.23c-0.06,0.02-0.14-0.03-0.18,0.01
						c-0.12,0.13-0.13,0.34-0.25,0.46c-0.13,0.12-0.3,0.18-0.47,0.23c-0.1,0.03-0.27-0.02-0.39,0.02c0.01-0.01,0.01-0.03,0.02-0.04
						c0.07-0.08,0.17-0.11,0.22-0.2c0.03-0.05-0.01-0.15,0.05-0.18c0.16-0.08,0.35-0.05,0.53-0.09c0.02,0,0.08-0.02,0.06-0.05
						c-0.11-0.1-0.26-0.14-0.36-0.24c-0.07-0.06-0.07-0.18-0.12-0.25c-0.08-0.1-0.25-0.12-0.28-0.24c-0.04-0.15,0.07-0.3,0.1-0.45
						c0.05-0.28,0.11-0.57,0.15-0.85c0.01-0.08-0.04-0.17,0-0.23c0.06-0.1,0.18-0.15,0.26-0.22c0,0,0.09-0.27,0.13-0.42
						c0.04-0.14,0.03-0.29,0.09-0.43c0.04-0.09,0.12-0.16,0.2-0.19c0.06-0.03,0.17,0.11,0.18,0.04 M174.06,125.72
						c-0.31,0.61-1.11,0.03-1.4-0.21c-0.32-0.27,0.1-1.03,0.07-1.19c-0.02-0.12-0.23-0.04-0.33-0.08c-0.27-0.12-0.08-0.11-0.24-0.24
						c-0.21-0.19-0.46-0.32-0.69-0.49c-0.31-0.24-0.06-0.28-0.28-0.64c-0.08-0.14-0.38-0.04-0.43-0.2c-0.1-0.3,0.2-0.72,0.27-0.96
						c0.03-0.11-0.01-0.23,0-0.34c0.01-0.05,0.04-0.09,0.06-0.13c0.08-0.18,0.11-0.41,0.26-0.54c0.08-0.07,0.66,0.08,0.69,0.13
						c0.09,0.11,0.01,0.3,0.08,0.43c0.03,0.06,0.23-0.01,0.18,0.03c-0.21,0.19-0.53,0.11-0.46,0.29c0.05,0.14,0.27,0.23,0.24,0.37
						c-0.03,0.14-0.31,0.05-0.36,0.18c-0.04,0.08,0.18,0.04,0.25,0.09c0.11,0.08,0.21,0.19,0.3,0.3c0.04,0.05,0,0.14,0.06,0.16
						c0.16,0.06,0.37-0.06,0.51,0.05c0.12,0.1,0.04,0.33,0.11,0.46c0.02,0.04,0.09,0,0.12-0.04c0.06-0.11,0-0.3,0.11-0.36
						c0.07-0.05,0.12,0.11,0.19,0.17c0.11,0.07,0.26,0.09,0.34,0.2c0.03,0.05-0.07,0.11-0.09,0.17c-0.03,0.07-0.03,0.15-0.07,0.22
						c-0.06,0.1-0.23,0.14-0.23,0.26c0,0.12,0.14,0.2,0.21,0.29c-0.03-0.03-0.09-0.12-0.07-0.1c0.07,0.06,0.11,0.15,0.18,0.21
						c0.1,0.07,0.25,0.07,0.34,0.16c0.07,0.08,0.05,0.21,0.09,0.31c0.07,0.16,0.21,0.36,0.21,0.49
						C174.27,125.36,174.14,125.54,174.06,125.72 M173.85,121.21c-0.09,0.01-0.11-0.15-0.16-0.23c-0.06-0.09-0.12-0.18-0.16-0.28
						c-0.19-0.45-0.02-0.81,0.19-1.29c0.03-0.08,0.02,0.18,0.04,0.27c0.12,0.34,0.08,0.02,0.31,0.26c0.07,0.07,0.14,0.28,0.14,0.28
						C174.32,120.66,174.54,121.13,173.85,121.21"/>
				</g>
			</g>
			<g>
				<g>
					<path class="st0" d="M154.63,105.33c0-0.6,1.42-1.09,3.17-1.09c1.75,0,3.18,0.49,3.18,1.09c0,0.6-1.42,1.09-3.18,1.09
						C156.05,106.42,154.63,105.93,154.63,105.33"/>
				</g>
			</g>
			<g>
				<g>
					<path class="st0" d="M138.78,143.36c0.04-0.02,0.31,0.61,0.31-0.03c0.01-0.16-0.39-0.86-0.49-1.01c-0.68-0.95,0,0.13-0.46-0.57
						c-0.31-0.46-0.53-0.99-0.87-1.43c-0.16-0.21-0.32-0.41-0.46-0.64c-0.09-0.15-0.15-0.33-0.26-0.47
						c-0.04-0.06-0.08-0.11-0.11-0.17c-0.05-0.14-0.06-0.25-0.11-0.39c-0.1-0.23-0.12-0.51-0.23-0.74
						c-0.05-0.09-0.01-0.37-0.19-0.44c-0.1-0.04-0.04-0.36-0.15-0.25c-0.04-0.06-0.1-0.16-0.13-0.23c-0.04-0.09-0.28-0.43-0.39-0.71
						c0.41,1.21,0.17,1.07,1.45,3.72c0.1,0.21,0.22,0.41,0.33,0.61c0.05,0.09,0.1,0.18,0.14,0.27
						C137.84,142.07,138.42,142.89,138.78,143.36C138.78,143.37,138.78,143.36,138.78,143.36"/>
				</g>
			</g>
			<g>
				<g>
					<path class="st0" d="M157.83,153.21c-13.28,0-24.08-11.3-24.08-25.18c0-13.89,10.8-25.18,24.08-25.18
						c13.28,0,24.08,11.3,24.08,25.18C181.91,141.91,171.11,153.21,157.83,153.21z M157.83,102.99c-13.19,0-23.93,11.23-23.93,25.03
						c0,13.8,10.73,25.03,23.93,25.03c13.19,0,23.93-11.23,23.93-25.03C181.76,114.22,171.03,102.99,157.83,102.99z"/>
				</g>
			</g>
			<g>
				<g>
					<g>
						<path class="st0" d="M157.83,105.34l-0.06-0.02c0,0,0.09-0.2,0.14-0.29c0.13-0.28,0.25-0.53,0.39-0.76l0.03-0.06
							c0.17-0.31,0.43-0.77,0.68-0.93c0.14-0.09,0.29-0.15,0.43-0.2c0.07-0.03,0.15-0.06,0.22-0.09l0.03,0.06
							c-0.07,0.03-0.15,0.06-0.22,0.09c-0.14,0.06-0.29,0.12-0.42,0.2c-0.24,0.15-0.5,0.63-0.66,0.91l-0.03,0.06
							c-0.13,0.23-0.26,0.48-0.38,0.76C157.92,105.14,157.83,105.34,157.83,105.34z"/>
					</g>
				</g>
				<g>
					<g>
						<path class="st0" d="M157.77,105.33c-0.02-0.12-0.04-0.25-0.05-0.38c-0.07-0.49-0.14-1.06-0.3-1.42
							c-0.06-0.13-0.12-0.25-0.19-0.36c-0.04-0.07-0.08-0.14-0.12-0.21l0.05-0.03c0.04,0.07,0.08,0.14,0.12,0.21
							c0.07,0.12,0.14,0.24,0.19,0.37c0.16,0.38,0.24,0.94,0.31,1.44c0.02,0.14,0.04,0.26,0.05,0.38L157.77,105.33z"/>
					</g>
				</g>
				<g>
					<g>
						<path class="st0" d="M157.78,105.34c0,0-0.15-0.19-0.22-0.28c-0.22-0.27-0.43-0.51-0.65-0.73c-0.42-0.43-1.04-0.96-1.56-1.06
							c-0.16-0.03-0.42-0.04-0.65-0.04c-0.15,0-0.29-0.01-0.39-0.02l0.01-0.06c0.1,0.01,0.24,0.01,0.39,0.02
							c0.24,0.01,0.5,0.01,0.67,0.04c0.53,0.11,1.16,0.65,1.59,1.08c0.22,0.22,0.44,0.46,0.66,0.73c0.08,0.09,0.22,0.28,0.22,0.28
							L157.78,105.34z"/>
					</g>
				</g>
				<g>
					<g>
						<path class="st0" d="M157.79,105.35c0,0-0.25-0.17-0.38-0.24c-0.11-0.07-0.25-0.15-0.38-0.23c-0.4-0.23-0.76-0.41-1.11-0.56
							c-1.06-0.47-1.94-0.65-3.28-0.68h0c-0.08,0-0.27,0.06-0.48,0.12c-0.42,0.13-0.94,0.29-1.17,0.16l0.03-0.05
							c0.2,0.12,0.73-0.05,1.12-0.17c0.22-0.07,0.4-0.12,0.49-0.12h0c1.34,0.03,2.24,0.21,3.3,0.69c0.35,0.15,0.71,0.33,1.11,0.57
							c0.14,0.08,0.27,0.16,0.39,0.23c0.13,0.08,0.38,0.24,0.38,0.25L157.79,105.35z"/>
					</g>
				</g>
				<g>
					<g>
						<path class="st0" d="M157.79,105.35c0,0-0.17-0.06-0.26-0.1c-0.27-0.1-0.44-0.16-0.73-0.26l-0.04-0.01
							c-0.69-0.23-1.4-0.39-2-0.52c-2.29-0.48-4.43-0.28-6.56,0.61l-0.02-0.06c2.14-0.89,4.29-1.09,6.59-0.61
							c0.6,0.13,1.31,0.29,2,0.52l0.04,0.01c0.29,0.1,0.46,0.15,0.73,0.26c0.08,0.03,0.26,0.1,0.26,0.1L157.79,105.35z"/>
					</g>
				</g>
				<g>
					<g>
						<path class="st0" d="M143.92,107.64l-0.04-0.05c1.99-1.43,4.3-2.38,6.35-2.6c0.2-0.02,0.41-0.05,0.61-0.08
							c0.5-0.07,1.01-0.14,1.52-0.14c0.02,0,0.04,0,0.06,0c1.9,0.02,2.26,0.03,4.15,0.28c0.42,0.06,1.23,0.24,1.24,0.24l-0.01,0.06
							c-0.01,0-0.82-0.18-1.23-0.24c-1.89-0.24-2.24-0.26-4.14-0.28c-0.02,0-0.04,0-0.06,0c-0.51,0-1.02,0.07-1.52,0.14
							c-0.2,0.03-0.41,0.05-0.61,0.08C148.2,105.27,145.89,106.22,143.92,107.64z"/>
					</g>
				</g>
				<g>
					<g>
						<path class="st0" d="M138.91,112.73l-0.05-0.04c1.39-1.85,3.16-3.41,5.24-4.63c1.98-1.16,4.16-1.97,6.47-2.4
							c0.12-0.02,0.24-0.04,0.35-0.06c0.93-0.17,1.89-0.35,2.82-0.35c0.01,0,0.03,0,0.04,0c1.33,0.01,4,0.05,4.02,0.05l0,0.06
							c-0.03,0-2.7-0.04-4.02-0.05c-0.01,0-0.03,0-0.04,0c-0.92,0-1.88,0.18-2.8,0.35c-0.12,0.02-0.24,0.04-0.35,0.07
							c-2.3,0.43-4.48,1.23-6.45,2.39C142.06,109.33,140.3,110.88,138.91,112.73z"/>
					</g>
				</g>
				<g>
					<g>
						<path class="st0" d="M134.75,121.35l-0.06-0.01c1.02-3.81,3.21-7.14,6.51-9.89c2.9-2.42,6.51-4.24,10.44-5.27
							c1.94-0.52,3.87-0.73,6.16-0.88l0,0.06c-2.29,0.16-4.21,0.36-6.15,0.88c-3.92,1.03-7.52,2.85-10.41,5.26
							C137.95,114.24,135.76,117.55,134.75,121.35z"/>
					</g>
				</g>
				<g>
					<g>
						<path class="st0" d="M142.23,147.12c-1.43-1.34-1.97-2.66-2.44-4.46c-0.13-0.54-0.27-1.12-0.33-1.68
							c-0.06-0.6-0.12-1.22-0.17-1.86c-0.01-0.09-0.01-0.19-0.01-0.28c0-0.23,0-0.47,0-0.7c0-0.65-0.01-1.31,0.06-1.97
							c0.13-1.31,0.27-2.59,0.53-3.9c1.29-6.32,4.07-12.51,8.05-17.92c1.9-2.59,3.96-4.79,6.11-6.55c0.82-0.67,1.6-1.23,2.37-1.71
							c0.27-0.17,0.59-0.36,0.93-0.55c0.15-0.08,0.46-0.24,0.46-0.24l0.03,0.05c0,0-0.3,0.16-0.46,0.24
							c-0.33,0.18-0.65,0.38-0.92,0.55c-0.77,0.49-1.55,1.04-2.37,1.71c-2.15,1.76-4.21,3.96-6.1,6.54
							c-3.97,5.4-6.75,11.59-8.03,17.9c-0.26,1.31-0.4,2.59-0.53,3.89c-0.07,0.65-0.06,1.32-0.06,1.96c0,0.23,0,0.47,0,0.7
							c0,0.09,0,0.19,0.01,0.27c0.05,0.63,0.11,1.26,0.17,1.85c0.06,0.56,0.19,1.13,0.33,1.67c0.46,1.8,1,3.1,2.42,4.43
							L142.23,147.12z"/>
					</g>
				</g>
				<g>
					<g>
						<path class="st0" d="M148.04,151.03c-0.11-0.06-0.19-0.1-0.27-0.14c-0.15-0.07-0.27-0.12-0.44-0.27
							c-0.41-0.38-1.79-1.88-2.17-5.27c-0.02-0.2-0.05-0.41-0.08-0.61c-0.06-0.47-0.13-0.96-0.13-1.44
							c0.01-1.46,0.02-3.01,0.04-4.57c0-0.64,0.08-1.27,0.16-1.89c0.03-0.29,0.07-0.59,0.1-0.88c0.15-1.46,0.41-2.89,0.71-4.48
							c1.07-5.62,2.83-11.09,5.25-16.25c1.3-2.77,2.63-5.07,4.06-7.01c0.53-0.73,1.07-1.4,1.6-1.97c0.24-0.26,0.39-0.41,0.63-0.64
							c0.1-0.1,0.3-0.29,0.3-0.29l0.04,0.04c0,0-0.2,0.19-0.3,0.29c-0.23,0.23-0.38,0.38-0.62,0.64c-0.53,0.57-1.07,1.23-1.6,1.96
							c-1.43,1.94-2.75,4.24-4.05,7c-2.42,5.15-4.18,10.61-5.25,16.23c-0.3,1.59-0.57,3.02-0.71,4.48c-0.03,0.3-0.06,0.59-0.1,0.88
							c-0.07,0.62-0.15,1.25-0.15,1.89c-0.02,1.56-0.03,3.12-0.04,4.57c0,0.48,0.07,0.96,0.13,1.43c0.03,0.2,0.06,0.41,0.08,0.61
							c0.1,0.85,0.53,3.75,2.16,5.24c0.16,0.14,0.28,0.2,0.43,0.27c0.08,0.04,0.17,0.08,0.28,0.14L148.04,151.03z"/>
					</g>
				</g>
				<g>
					<g>
						<path class="st0" d="M153.57,152.78c-0.04-0.02-0.07-0.04-0.09-0.06c-0.08-0.05-0.13-0.08-0.23-0.17
							c-0.01-0.01-0.01-0.01-0.02-0.02c-0.08-0.06-0.17-0.13-0.46-0.93c-0.2-0.55-0.34-1.21-0.44-2.01
							c-0.02-0.19-0.05-0.38-0.08-0.57c-0.07-0.49-0.14-0.99-0.14-1.49c0-2.67,0.02-5.39,0.04-8.01c0.01-0.87,0.01-1.74,0.02-2.61
							c0.01-0.81,0.08-1.63,0.15-2.43c0.03-0.36,0.07-0.74,0.09-1.1c0.08-1.05,0.18-2.07,0.26-2.85c0.51-4.97,1.12-9.31,1.87-13.28
							c0.44-2.38,1-5.18,1.78-7.93c0.23-0.82,0.52-1.79,0.85-2.72c0.11-0.3,0.25-0.69,0.41-1.08c0.04-0.1,0.13-0.31,0.13-0.32
							l0.06,0.02c0,0-0.09,0.21-0.13,0.32c-0.16,0.39-0.3,0.78-0.41,1.08c-0.33,0.93-0.62,1.9-0.85,2.72
							c-0.78,2.75-1.34,5.55-1.78,7.93c-0.74,3.97-1.35,8.31-1.87,13.27c-0.08,0.78-0.18,1.8-0.26,2.85
							c-0.03,0.37-0.06,0.74-0.09,1.1c-0.07,0.79-0.15,1.61-0.15,2.42c-0.01,0.87-0.01,1.74-0.02,2.61
							c-0.02,2.63-0.04,5.34-0.04,8.01c0,0.5,0.07,1,0.14,1.48c0.03,0.19,0.05,0.38,0.08,0.57c0.1,0.8,0.24,1.45,0.44,2
							c0.29,0.78,0.37,0.84,0.44,0.9c0.01,0.01,0.02,0.01,0.02,0.02c0.09,0.08,0.15,0.11,0.22,0.16c0.03,0.02,0.06,0.04,0.09,0.06
							L153.57,152.78z"/>
					</g>
				</g>
				<g>
					<g>
						<path class="st0" d="M159.35,153.02l-0.05-0.03c0.04-0.08,0.08-0.11,0.11-0.13c0.03-0.02,0.05-0.04,0.08-0.11
							c0.04-0.09,0.05-0.2,0.06-0.29c0.02-0.17,0.04-0.33,0.06-0.5c0.07-0.49,0.14-1.01,0.14-1.51c-0.01-5.79-0.02-11.66-0.04-17.45
							c0-1.33-0.07-2.67-0.14-3.98c-0.03-0.61-0.06-1.24-0.09-1.86c-0.07-1.78-0.16-3.51-0.25-4.97l-0.01-0.23
							c-0.19-3.25-0.39-6.61-0.68-9.91l-0.02-0.2c-0.2-2.15-0.4-4.37-0.73-6.53l0.06-0.01c0.33,2.16,0.54,4.39,0.73,6.53l0.02,0.2
							c0.3,3.29,0.49,6.66,0.68,9.91l0.01,0.24c0.09,1.46,0.18,3.2,0.25,4.97c0.02,0.62,0.06,1.25,0.09,1.86
							c0.07,1.3,0.13,2.65,0.14,3.98c0.02,5.79,0.03,11.66,0.04,17.45c0,0.51-0.07,1.02-0.14,1.52c-0.02,0.17-0.04,0.33-0.06,0.49
							c-0.01,0.1-0.02,0.21-0.06,0.3c-0.03,0.09-0.07,0.12-0.1,0.14C159.41,152.94,159.38,152.95,159.35,153.02z"/>
					</g>
				</g>
				<g>
					<g>
						<path class="st0" d="M164.91,152.02l-0.02-0.06c1.27-0.53,2.08-2.34,2.37-5.23c0.02-0.18,0.04-0.36,0.06-0.54
							c0.06-0.48,0.11-0.98,0.11-1.47c0-1.59-0.01-3.31-0.03-5.26c-0.01-0.73-0.08-1.48-0.15-2.2c-0.03-0.34-0.07-0.69-0.09-1.03
							c-0.14-1.67-0.39-3.34-0.65-5.04c-0.88-5.59-2.19-10.94-3.91-15.9c-0.95-2.75-1.88-4.95-2.92-6.92
							c-0.37-0.71-0.77-1.4-1.18-2.05c-0.18-0.27-0.33-0.48-0.46-0.67c-0.07-0.1-0.23-0.3-0.23-0.31l0.05-0.04
							c0,0,0.16,0.2,0.23,0.31c0.14,0.19,0.28,0.4,0.47,0.67c0.42,0.65,0.82,1.34,1.19,2.05c1.05,1.98,1.97,4.18,2.93,6.93
							c1.72,4.96,3.04,10.32,3.92,15.91c0.26,1.71,0.51,3.37,0.65,5.05c0.03,0.34,0.06,0.69,0.1,1.03c0.07,0.72,0.14,1.47,0.15,2.21
							c0.02,1.94,0.02,3.66,0.03,5.26c0,0.5-0.06,1-0.11,1.48c-0.02,0.18-0.04,0.36-0.06,0.54
							C167.03,149.65,166.2,151.48,164.91,152.02z"/>
					</g>
				</g>
				<g>
					<g>
						<path class="st0" d="M170.49,149.4l-0.04-0.05c1.93-1.44,2.64-3.32,3.1-5.7l0-0.01c0.12-0.57,0.24-1.16,0.23-1.75
							c-0.01-1.79-0.02-3.45-0.05-5.07c-0.01-0.48-0.08-0.95-0.15-1.42c-0.03-0.2-0.06-0.4-0.09-0.6c-0.17-1.34-0.46-2.82-0.92-4.65
							c-1.39-5.53-3.58-10.74-6.5-15.48c-1.62-2.63-3.29-4.81-5.09-6.63c-0.68-0.69-1.36-1.3-2.03-1.83
							c-0.28-0.22-0.54-0.41-0.79-0.6c-0.12-0.09-0.39-0.27-0.39-0.27l0.03-0.05c0,0,0.27,0.18,0.39,0.27
							c0.26,0.18,0.52,0.38,0.8,0.6c0.67,0.53,1.35,1.15,2.03,1.84c1.81,1.83,3.47,4.01,5.1,6.64c2.93,4.75,5.12,9.96,6.51,15.5
							c0.46,1.83,0.75,3.31,0.92,4.66c0.03,0.2,0.06,0.4,0.09,0.6c0.07,0.46,0.14,0.95,0.15,1.42c0.02,1.62,0.04,3.28,0.05,5.07
							c0.01,0.59-0.12,1.18-0.23,1.76l0,0.01c-0.27,1.38-0.58,2.37-1.01,3.22C172.11,147.89,171.42,148.72,170.49,149.4z"/>
					</g>
				</g>
				<g>
					<g>
						<path class="st0" d="M175.95,144.55l-0.05-0.04c1.91-2.42,3.76-7,1.69-15.08c-0.64-2.52-1.66-5.11-3.03-7.7
							c-1.88-3.59-4.33-6.96-7.07-9.72c-3.03-3.06-6.29-5.3-9.7-6.65l0.02-0.06c3.41,1.36,6.68,3.6,9.72,6.67
							c2.75,2.77,5.19,6.14,7.08,9.74c1.37,2.59,2.39,5.19,3.03,7.71C178.79,133.89,179.43,140.15,175.95,144.55z"/>
					</g>
				</g>
				<g>
					<g>
						<path class="st0" d="M180.31,136.7l-0.06-0.02c1.87-5.87,0.02-11.47-1.87-15.13c-4.13-8.05-12.02-14.26-20.59-16.2l0.01-0.06
							c8.59,1.94,16.49,8.16,20.63,16.23C180.33,125.2,182.19,130.81,180.31,136.7z"/>
					</g>
				</g>
				<g>
					<g>
						<path class="st0" d="M181.72,126.33c-0.2-1.7-0.54-3.18-1.07-4.67c-1.3-3.62-3.67-6.95-6.83-9.65
							c-2.92-2.48-6.46-4.4-10.25-5.54c-1.67-0.51-3.51-0.86-5.77-1.12l0.01-0.06c2.27,0.26,4.1,0.61,5.78,1.12
							c3.8,1.15,7.35,3.07,10.27,5.55c3.17,2.7,5.54,6.04,6.85,9.67c0.54,1.49,0.88,2.98,1.07,4.68L181.72,126.33z"/>
					</g>
				</g>
				<g>
					<g>
						<path class="st0" d="M178.9,116.32c-1.41-2.7-3.46-4.99-6.07-6.81c-2.42-1.69-5.28-2.91-8.27-3.53
							c-0.13-0.03-0.27-0.06-0.4-0.09c-0.74-0.16-1.51-0.33-2.25-0.36c-0.8-0.04-1.62-0.07-2.42-0.1c-0.57-0.02-1.13-0.05-1.7-0.07
							l0-0.06c0.56,0.03,1.13,0.05,1.7,0.07c0.79,0.03,1.61,0.06,2.42,0.1c0.74,0.04,1.51,0.2,2.26,0.36
							c0.13,0.03,0.27,0.06,0.4,0.09c3,0.62,5.87,1.85,8.29,3.54c2.62,1.83,4.67,4.13,6.09,6.83L178.9,116.32z"/>
					</g>
				</g>
				<g>
					<g>
						<path class="st0" d="M173.99,109.61c-2.33-2.21-5.36-3.66-9.01-4.29c-0.53-0.09-1.53-0.18-2.08-0.22
							c-0.17-0.02-0.31-0.02-0.45-0.02c-0.23,0-0.46,0-0.68-0.01c-0.66-0.01-1.34-0.02-2.01,0.06c-0.65,0.07-1.95,0.22-1.95,0.22
							l-0.01-0.06c0,0,1.3-0.15,1.95-0.22c0.67-0.07,1.36-0.06,2.02-0.06c0.27,0,0.55,0.01,0.82,0.01c0.09,0,0.2,0.01,0.31,0.01
							c0.56,0.05,1.56,0.13,2.09,0.23c3.65,0.63,6.7,2.08,9.04,4.3L173.99,109.61z"/>
					</g>
				</g>
				<g>
					<g>
						<path class="st0" d="M169.29,106.05c-0.91-0.48-2.12-1.06-3.41-1.27c-0.13-0.02-0.26-0.05-0.39-0.07
							c-0.32-0.06-0.65-0.13-0.98-0.13c-0.01,0-0.01,0-0.01,0c-1.23,0.02-2.32,0.04-3.33,0.07c-0.72,0.02-1.46,0.21-2.18,0.39
							c-0.1,0.03-0.21,0.05-0.31,0.08c-0.28,0.07-0.85,0.24-0.86,0.24l-0.02-0.06c0.01,0,0.58-0.17,0.86-0.24
							c0.1-0.03,0.21-0.05,0.31-0.08c0.72-0.19,1.46-0.38,2.19-0.4c1.02-0.03,2.1-0.05,3.33-0.07c0.01,0,0.01,0,0.02,0
							c0.33,0,0.67,0.07,1,0.13c0.13,0.03,0.26,0.05,0.39,0.07c1.3,0.21,2.51,0.79,3.43,1.28L169.29,106.05z"/>
					</g>
				</g>
				<g>
					<g>
						<path class="st0" d="M157.82,105.35l-0.03-0.05c0,0,0.15-0.07,0.23-0.11c0.2-0.1,0.44-0.21,0.68-0.32
							c0.66-0.28,1.21-0.48,1.73-0.63c1.68-0.48,3.16-0.45,4.96,0.1l-0.02,0.06c-1.79-0.55-3.26-0.58-4.93-0.1
							c-0.52,0.15-1.07,0.35-1.73,0.63c-0.24,0.1-0.47,0.22-0.67,0.31C157.97,105.28,157.82,105.35,157.82,105.35z"/>
					</g>
				</g>
				<g>
					<g>
						<path class="st0" d="M157.82,105.35l-0.04-0.05c0,0,0.2-0.18,0.3-0.27c0.1-0.08,0.2-0.17,0.3-0.25
							c0.28-0.23,0.57-0.44,0.87-0.63c0.33-0.21,1.13-0.7,1.62-0.73c0.35-0.03,0.71-0.04,1.05-0.05c0.15,0,0.3-0.01,0.44-0.01
							l0,0.06c-0.15,0.01-0.3,0.01-0.45,0.01c-0.35,0.01-0.7,0.02-1.05,0.05c-0.47,0.03-1.27,0.52-1.59,0.73
							c-0.3,0.19-0.59,0.4-0.86,0.63c-0.11,0.08-0.21,0.17-0.3,0.25C158.02,105.17,157.82,105.35,157.82,105.35z"/>
					</g>
				</g>
				<g>
					<g>
						<path class="st0" d="M158.3,151.89c-0.13,0-0.26,0-0.38-0.01l-0.1,0c-1.74-0.07-3-0.13-4.65-0.37
							c-2.74-0.4-5.45-1.28-7.83-2.55c-2.63-1.39-4.78-3.19-6.4-5.33l0.05-0.04c1.61,2.13,3.76,3.92,6.38,5.31
							c2.38,1.26,5.08,2.14,7.81,2.54c1.65,0.24,2.9,0.3,4.64,0.37l0.1,0c0.94,0.03,2.03-0.08,3-0.19c0.31-0.03,0.61-0.07,0.88-0.09
							c1.27-0.12,2.75-0.46,4.53-1.03c3.08-0.98,7.36-2.98,10.28-6.92l0.05,0.04c-2.93,3.95-7.23,5.96-10.32,6.94
							c-1.78,0.57-3.26,0.91-4.54,1.03c-0.27,0.02-0.57,0.06-0.88,0.09C160.09,151.79,159.15,151.89,158.3,151.89z"/>
					</g>
				</g>
				<g>
					<g>
						<path class="st0" d="M154.48,141.9c-0.45,0-0.91-0.07-1.35-0.14c-0.19-0.03-0.39-0.06-0.59-0.09
							c-1.23-0.15-2.46-0.44-3.51-0.7c-2.26-0.56-5.6-1.67-8.66-3.77c-2.97-2.04-4.97-4.53-5.94-7.4c-0.39-1.16-0.43-2.03-0.47-3.22
							c-0.01-0.24-0.02-0.49-0.03-0.76l0.06,0c0.01,0.27,0.02,0.52,0.03,0.76c0.05,1.19,0.08,2.05,0.47,3.21
							c0.97,2.85,2.96,5.33,5.92,7.37c3.06,2.1,6.39,3.21,8.64,3.77c1.04,0.26,2.28,0.54,3.5,0.69c0.2,0.02,0.4,0.06,0.59,0.09
							c0.44,0.07,0.89,0.14,1.34,0.14c0,0,0.01,0,0.01,0c2.67-0.01,5-0.03,7.13-0.05c0.07,0,0.14-0.01,0.2-0.02l0.04-0.01
							c3.24-0.43,5.84-1.05,8.18-1.96c2.66-1.02,4.94-2.29,6.78-3.76c2.3-1.84,3.83-3.95,4.55-6.29c0.33-1.06,0.33-1.9,0.34-2.95
							c0-0.32,0-0.66,0.01-1.03l0.06,0c-0.01,0.37-0.01,0.7-0.01,1.03c0,1.06-0.01,1.89-0.34,2.97c-0.72,2.34-2.26,4.47-4.57,6.32
							c-1.84,1.48-4.13,2.75-6.79,3.77c-2.35,0.91-4.95,1.53-8.2,1.96l-0.03,0.01c-0.07,0.01-0.14,0.02-0.21,0.02
							C159.49,141.87,157.16,141.89,154.48,141.9C154.49,141.9,154.48,141.9,154.48,141.9z"/>
					</g>
				</g>
				<g>
					<g>
						<path class="st0" d="M156.05,134c-1.57,0-3.28-0.27-4.44-0.48c-1.41-0.25-2.64-0.53-3.79-0.87c-1.05-0.31-2.08-0.67-3.06-1.09
							c-0.83-0.35-1.63-0.74-2.37-1.15c-2.68-1.49-4.64-3.3-5.83-5.37c-0.34-0.6-0.93-1.74-1.03-2.72
							c-0.01-0.09-0.02-0.19-0.03-0.28c-0.07-0.59-0.16-1.32-0.08-1.95c0.11-0.89,0.33-1.73,0.69-2.63l0.06,0.02
							c-0.36,0.89-0.58,1.72-0.69,2.61c-0.07,0.62,0.01,1.35,0.08,1.94c0.01,0.1,0.02,0.19,0.03,0.28c0.11,0.97,0.69,2.11,1.03,2.7
							c1.18,2.06,3.14,3.86,5.81,5.34c0.74,0.41,1.54,0.8,2.37,1.15c0.98,0.41,2,0.77,3.05,1.08c1.14,0.34,2.38,0.62,3.78,0.86
							c1.16,0.2,2.87,0.48,4.43,0.48c0.02,0,0.03,0,0.05,0l0.59,0c2.33,0,4.34-0.01,6.66-0.37c3.18-0.5,5.92-1.3,8.37-2.45
							c2.74-1.28,7.47-4.15,8.34-8.93c0.16-0.87,0.1-1.6,0.03-2.53l-0.01-0.12c-0.05-0.68-0.32-1.36-0.62-2.06l0.06-0.02
							c0.3,0.7,0.57,1.39,0.62,2.08l0.01,0.12c0.07,0.93,0.13,1.66-0.03,2.54c-0.87,4.8-5.62,7.68-8.37,8.97
							c-2.46,1.15-5.2,1.95-8.39,2.45c-2.32,0.36-4.34,0.37-6.67,0.37l-0.59,0C156.08,134,156.06,134,156.05,134z"/>
					</g>
				</g>
				<g>
					<g>
						<path class="st0" d="M158.16,125.17c-0.21,0-0.43-0.01-0.64-0.02c-1.03-0.05-2.09-0.11-3.11-0.17l-0.25-0.01
							c-0.62-0.04-1.24-0.14-1.82-0.24c-3.04-0.52-5.45-1.26-7.58-2.34c-3.2-1.61-5.15-3.6-5.8-5.93c-0.16-0.58-0.16-0.88-0.17-1.48
							c0-0.16,0-0.35-0.01-0.58c-0.01-0.52,0.2-1.13,0.42-1.65c0.37-0.9,0.91-1.62,1.61-2.42l0.05,0.04c-0.7,0.8-1.23,1.52-1.6,2.4
							c-0.21,0.52-0.42,1.11-0.41,1.63c0.01,0.22,0.01,0.41,0.01,0.58c0.01,0.61,0.01,0.89,0.17,1.46c0.65,2.31,2.59,4.29,5.77,5.89
							c2.12,1.07,4.52,1.81,7.56,2.33c0.58,0.1,1.2,0.2,1.81,0.24l0.25,0.01c1.02,0.06,2.07,0.12,3.11,0.17
							c1.16,0.05,2.45-0.06,3.6-0.17c0.3-0.03,0.59-0.05,0.87-0.08c0.72-0.06,1.46-0.2,2.15-0.33c2.3-0.45,4.26-1.06,6.01-1.86
							c1.68-0.77,5.67-2.91,6.45-6.3c0.21-0.91,0.18-1.41,0.1-2.37c-0.05-0.56-0.31-1.15-0.53-1.6c-0.34-0.69-0.82-1.37-1.42-2.01
							l0.05-0.04c0.61,0.64,1.09,1.32,1.43,2.02c0.23,0.46,0.49,1.06,0.54,1.62c0.08,0.96,0.11,1.47-0.1,2.38
							c-0.79,3.42-4.79,5.57-6.48,6.35c-1.75,0.8-3.72,1.41-6.02,1.86c-0.69,0.13-1.43,0.27-2.15,0.33
							c-0.28,0.02-0.57,0.05-0.87,0.08C160.19,125.07,159.15,125.17,158.16,125.17z"/>
					</g>
				</g>
				<g>
					<g>
						<path class="st0" d="M155.29,116.6c-0.62,0-1.25-0.12-1.86-0.24l-0.13-0.03c-1.93-0.35-3.45-0.79-4.8-1.39
							c-1.49-0.67-4.91-2.53-4.5-5.5c0.24-1.78,1.73-3.29,4.56-4.6l0.03,0.06c-2.8,1.3-4.28,2.79-4.52,4.55
							c-0.41,2.93,2.99,4.78,4.47,5.44c1.34,0.6,2.86,1.04,4.79,1.39l0.13,0.03c0.61,0.12,1.23,0.23,1.85,0.23h0.01
							c1.88-0.01,3.79-0.03,5.66-0.06c0.41-0.01,0.82-0.09,1.21-0.17c0.17-0.03,0.34-0.07,0.51-0.09c1.05-0.17,2.18-0.47,3.35-0.9
							c3.92-1.43,5.13-3.28,5.46-4.59c0.32-1.27-0.07-2.5-1.16-3.64c-1.06-1.11-2.51-1.84-3.29-2.19l0.02-0.06
							c0.78,0.34,2.24,1.09,3.31,2.2c1.11,1.16,1.5,2.4,1.18,3.69c-0.33,1.32-1.56,3.2-5.5,4.63c-1.18,0.43-2.31,0.73-3.36,0.9
							c-0.17,0.03-0.34,0.06-0.51,0.09c-0.4,0.08-0.81,0.16-1.23,0.17C159.08,116.57,157.18,116.59,155.29,116.6L155.29,116.6z"/>
					</g>
				</g>
				<g>
					<g>
						<path class="st0" d="M158.15,109.9c-0.12,0-0.25,0-0.37,0c-0.12,0-0.24,0-0.37,0l-0.1,0c-1.77,0-4.34-0.52-5.8-1.65
							c-0.63-0.49-0.97-1.07-1-1.66c-0.02-0.54,0.23-1.07,0.74-1.55c0.89-0.84,2.87-1.6,3.92-1.66c0.99-0.06,2-0.1,2.97-0.13
							c0.31-0.01,0.63-0.02,0.94-0.04c0.17,0.02,0.3,0.03,0.42,0.04c0.31,0.03,0.48,0.05,0.87,0.12c0.43,0.08,0.84,0.17,1.21,0.27
							c0.23,0.06,0.47,0.14,0.74,0.24c0.76,0.28,3.18,1.32,2.72,3.06c-0.39,1.46-2.46,2.2-3.34,2.45c-0.08,0.02-0.15,0.04-0.23,0.06
							c-0.22,0.06-0.44,0.12-0.66,0.16c-0.72,0.1-1.36,0.19-1.95,0.26C158.66,109.88,158.44,109.9,158.15,109.9z M157.41,109.83
							c0.12,0,0.24,0,0.37,0c0.12,0,0.25,0,0.37,0c0.28,0,0.5-0.01,0.7-0.04c0.6-0.07,1.23-0.16,1.95-0.26
							c0.22-0.03,0.44-0.09,0.65-0.16c0.08-0.02,0.15-0.04,0.23-0.06c0.86-0.25,2.92-0.97,3.3-2.4c0.45-1.69-1.94-2.71-2.69-2.98
							c-0.27-0.1-0.51-0.17-0.74-0.24c-0.36-0.1-0.77-0.19-1.2-0.27c-0.38-0.07-0.55-0.08-0.87-0.12c-0.11-0.01-0.25-0.03-0.41-0.04
							c-0.31,0.01-0.62,0.03-0.94,0.04c-0.97,0.04-1.98,0.08-2.97,0.13c-1.03,0.06-3.03,0.83-3.88,1.64
							c-0.49,0.46-0.74,0.98-0.72,1.5c0.03,0.57,0.36,1.13,0.98,1.61c1.44,1.12,4,1.63,5.76,1.63h0.01
							C157.36,109.83,157.39,109.83,157.41,109.83z"/>
					</g>
				</g>
				<g>
					<g>
						<path class="st0" d="M137.39,141.27c-1.21-2.14-1.8-4.66-1.77-7.48c0.02-2.44,0.51-5.02,1.44-7.66
							c1.64-4.68,4.46-9.13,8.15-12.88c3.76-3.82,8.11-6.57,12.58-7.95l0.02,0.06c-4.46,1.39-8.8,4.13-12.56,7.94
							c-3.69,3.74-6.51,8.19-8.14,12.86c-2.72,7.77-0.96,12.79,0.33,15.09L137.39,141.27z"/>
					</g>
				</g>
				<g>
					<g>
						<path class="st0" d="M158.8,148.09c-0.22,0-0.47,0-0.77,0c-0.58,0-1.3-0.01-2.28,0c-0.02,0-0.04,0-0.06,0
							c-1.47,0-3.61-0.38-5.13-0.73c-2.56-0.6-6.31-1.81-9.62-4.16c-3.2-2.28-5.3-5.13-6.24-8.48l0.06-0.02
							c0.94,3.34,3.03,6.18,6.22,8.45c3.3,2.35,7.04,3.56,9.6,4.15c1.53,0.36,3.66,0.73,5.12,0.73c0.32,0,0.61,0,0.88,0
							c0.58,0,1.05,0,1.46,0c2.01,0.01,2.1,0.01,4.69-0.3c2.21-0.27,4.66-0.93,7.07-1.93c2.62-1.09,4.97-2.56,6.81-4.25
							c2.2-2.03,3.64-4.33,4.3-6.85l0.06,0.02c-0.65,2.53-2.11,4.85-4.31,6.88c-1.84,1.7-4.21,3.17-6.83,4.26
							c-2.42,1-4.87,1.67-7.08,1.93C160.51,148.06,160.13,148.09,158.8,148.09z"/>
					</g>
				</g>
				<g>
					<g>
						<path class="st0" d="M134.7,134.71l-0.54-2.65c-0.58-4.51,0.56-9.16,3.29-13.46c2.38-3.74,5.91-7.12,9.95-9.51
							c1.44-0.85,2.94-1.58,4.46-2.18c1.85-0.72,3.85-1.26,5.94-1.61l0.01,0.06c-2.08,0.35-4.08,0.89-5.92,1.61
							c-1.52,0.59-3.02,1.33-4.46,2.17c-4.03,2.39-7.56,5.76-9.93,9.49c-2.72,4.28-3.86,8.92-3.28,13.42l0.54,2.65L134.7,134.71z"/>
					</g>
				</g>
			</g>
		</g>
		<g>
			<g>
				<defs>
					<polygon id="SVGID_1_" points="6.4,160.26 111.18,4.36 215.96,160.26 					"/>
				</defs>
				<clipPath id="SVGID_00000103960071010127312370000009569980329117775806_">
					<use xlink:href="#SVGID_1_"  style="overflow:visible;"/>
				</clipPath>
				<g style="clip-path:url(#SVGID_00000103960071010127312370000009569980329117775806_);">
					<g>
						<g>
							<g>
								<polygon class="st2" points="111.18,4.36 116.45,12.19 16.13,160.34 5.93,160.34 								"/>
							</g>
						</g>
					</g>
					<g>
						<g>
							<g>
								<polygon class="st2" points="119.99,14.19 125.28,22.06 25.39,169.6 15.19,169.6 								"/>
							</g>
						</g>
					</g>
					<g>
						<g>
							<g>
								<polygon class="st2" points="129.25,23.45 134.54,31.32 34.65,178.86 24.45,178.86 								"/>
							</g>
						</g>
					</g>
					<g>
						<g>
							<g>
								<polygon class="st2" points="138.51,32.71 143.8,40.58 43.91,188.12 33.71,188.12 								"/>
							</g>
						</g>
					</g>
					<g>
						<g>
							<g>
								<polygon class="st2" points="147.77,41.97 153.06,49.84 53.17,197.38 42.97,197.38 								"/>
							</g>
						</g>
					</g>
					<g>
						<g>
							<g>
								<polygon class="st2" points="157.03,51.23 162.32,59.1 62.43,206.64 52.23,206.64 								"/>
							</g>
						</g>
					</g>
				</g>
			</g>
			<g>
				<g>
					<path class="st2" d="M157.58,73.27l-58.47,86.99h116.95L157.58,73.27z M157.75,154.74c-14.18,0-25.68-11.98-25.68-26.75
						c0-14.78,11.5-26.75,25.68-26.75c14.18,0,25.68,11.98,25.68,26.75C183.43,142.76,171.93,154.74,157.75,154.74z"/>
				</g>
			</g>
		</g>
	</g>
	<g>
		<g>
			<path class="st3" d="M257.12,45.82c0.33-0.52,0.86-1.38,0.86-2.05c0-1.05-1-1.57-2.1-1.71c-1.1-0.14-2.14,0.05-2.14-0.81
				c0-0.81,0.86-1.05,1.48-1.05c1.43,0,2.86,0.19,4.38,0.19c1.72,0,3.53-0.19,5.29-0.19c0.67,0,1.52,0.29,1.52,1.14
				c0,0.71-0.57,0.67-1.14,0.71c-0.91,0.09-1.81,0.43-2.57,0.95c-1.29,0.95-2.67,3.05-3.53,4.34l-5.96,8.53v7.77
				c0,2.81-0.19,3.96,2.81,4.43c0.62,0.09,1.53,0.24,1.53,1.1c0,0.71-0.52,0.91-1.14,0.91c-2.48,0-4.86-0.19-7.34-0.19
				c-2.29,0-4.57,0.19-6.86,0.19c-0.67,0-1.14-0.19-1.14-0.91c0-0.76,0.71-1,1.29-1.1c3.14-0.52,3-1.33,3-4.43v-6.34l-8.39-12.01
				c-0.52-0.76-1.19-1.76-1.91-2.38c-0.57-0.52-0.91-0.81-1.67-0.86c-0.76-0.05-1.67,0.09-1.67-0.95c0-0.91,1-0.91,1.67-0.91
				c2.1,0,4.1,0.19,6.2,0.19c2.57,0,5.05-0.19,7.58-0.19c0.71,0,1.81,0,1.81,1c0,1-1.29,0.86-2,0.86c-0.52,0-1.57,0.33-1.57,1.05
				s0.91,1.95,1.29,2.53l5.53,7.96L257.12,45.82z"/>
			<path class="st3" d="M281.32,50.97c0,1.43-0.1,2.24,1.57,2.24c1,0,3.1,0,4-0.19c1.33-0.24,1.91-1.29,2.29-2.53
				c0.19-0.62,0.52-1.57,1.38-1.57c0.76,0,0.95,0.57,0.95,1.24c-0.09,1.33-0.09,2.76-0.19,4.1c0,1.33,0.1,2.76,0.19,4.1
				c0,0.62-0.19,1.33-1,1.33c-2.29,0-0.62-4.57-5.67-4.57l-2.05,0.1c-1.57,0.09-1.48,0.76-1.48,2.05v5.58
				c0,1.19,0.05,2.95,0.81,3.96c0.81,1.05,2.38,1.38,3.67,1.38c3.34,0,6.15-1.33,7.67-4.34c0.29-0.67,0.76-1.67,1.62-1.67
				c0.76,0,1.05,0.33,1.05,1.1c0,0.43-0.29,1.67-0.38,2.14l-0.52,3.81c-0.05,0.57-0.14,0.86-0.76,0.86c-3.53,0-7.05-0.19-10.58-0.19
				c-4.58,0-9.15,0.19-13.72,0.19c-0.67,0-1.14-0.14-1.14-0.86c0-0.76,0.71-1.05,1.29-1.14c3.24-0.52,3.15-1.48,3.15-4.34V46.82
				c0-2.81,0.14-4.29-2.91-4.76c-0.62-0.1-1.52-0.33-1.52-0.71c0-0.76,0.48-1.14,1.14-1.14c2.86,0,5.62,0.19,8.48,0.19
				c4.96,0,9.91-0.19,14.92-0.19c1.05,0,0.81,0.81,0.81,1.67v3.86c0,0.71,0.14,1.48-0.95,1.48c-0.71,0-1.14-0.76-1.48-1.29
				c-0.57-0.91-1.38-1.76-2.19-2.48c-1-0.91-2.48-0.95-3.76-0.95c-0.81,0-3.43,0-4.15,0.43c-0.57,0.33-0.52,1.62-0.52,2.19V50.97z"
				/>
			<path class="st3" d="M301.95,46.77c0-2.43,0.14-4.1-2.57-3.91c-0.71,0.05-1.76,0.33-1.76-0.76c0-2.19,12.91-2.67,15.01-2.67
				c4.57,0,8.82,0.67,12.77,3.14c4.15,2.62,6.72,6.77,6.72,11.72c0,9.82-9.48,15.77-18.49,15.77c-4,0-8.01-0.19-12.01-0.19
				c-0.86,0-1.81,0.19-2.72,0.19c-0.62,0-1.14-0.29-1.14-1.05c0-0.76,0.71-0.81,1.33-0.95c3.05-0.71,2.86-1.48,2.86-4.67V46.77z
				 M309.82,62.26c0,3.19-0.19,6,3.76,6c3.15,0,6.05-1.91,7.77-4.48c1.76-2.53,2.48-6.1,2.48-9.15c0-6.34-3.48-13.1-10.53-13.1
				c-3.43,0-3.48,0.76-3.48,4V62.26z"/>
			<path class="st3" d="M346.03,63.64c0,2.81-0.19,3.96,2.81,4.43c0.62,0.09,1.52,0.24,1.52,1.1c0,0.71-0.52,0.91-1.14,0.91
				c-2.48,0-4.86-0.19-7.34-0.19c-2.29,0-4.58,0.19-6.86,0.19c-0.67,0-1.14-0.19-1.14-0.91c0-0.76,0.71-1,1.29-1.1
				c3.15-0.52,3-1.33,3-4.43V46.73c0-2.91,0.29-4.15-2.76-4.67c-0.57-0.1-1.52-0.14-1.52-0.95c0-0.76,0.48-0.91,1.14-0.91
				c2.48,0,4.86,0.19,7.34,0.19c2.29,0,4.57-0.19,6.81-0.19c0.67,0,1.19,0.14,1.19,0.91c0,0.76-0.76,0.86-1.33,0.95
				c-3.24,0.52-3,1.48-3,4.67V63.64z"/>
			<path class="st3" d="M368.62,63.64c0,2.81-0.19,3.96,2.81,4.43c0.62,0.09,1.52,0.24,1.52,1.1c0,0.71-0.52,0.91-1.14,0.91
				c-2.48,0-4.86-0.19-7.34-0.19c-2.29,0-4.57,0.19-6.86,0.19c-0.67,0-1.14-0.19-1.14-0.91c0-0.76,0.71-1,1.29-1.1
				c3.15-0.52,3-1.33,3-4.43V43.53c-0.05-1.33,0-1.38-1.33-1.38c-3.24,0-4.53,1.29-6.29,3.86c-0.38,0.57-1.19,1.67-1.95,1.67
				c-0.62,0-0.86-0.48-0.86-1.05c0-0.33,0.14-0.71,0.24-1.05l1.52-5.58c0.19-0.71,0.38-1.62,1.29-1.62c0.52,0,0.81,0.24,0.95,0.71
				c0.43,1.33,0.76,1.1,2.1,1.1h17.11c1.48,0,2.67,0.14,3.53-1.24c0.24-0.43,0.57-0.91,1.14-0.91c1.1,0,0.91,0.91,0.81,1.71
				l-0.62,6.1c-0.09,0.76-0.05,1.95-1.05,1.95c-0.81,0-1.24-0.76-1.48-1.43c-1.38-3.43-2-4.29-5.96-4.29
				c-1.24,0-1.29,0.14-1.29,1.38V63.64z"/>
			<path class="st3" d="M391.87,50.97c0,1.43-0.1,2.24,1.57,2.24c1,0,3.1,0,4-0.19c1.33-0.24,1.91-1.29,2.29-2.53
				c0.19-0.62,0.52-1.57,1.38-1.57c0.76,0,0.95,0.57,0.95,1.24c-0.1,1.33-0.1,2.76-0.19,4.1c0,1.33,0.09,2.76,0.19,4.1
				c0,0.62-0.19,1.33-1,1.33c-2.29,0-0.62-4.57-5.67-4.57l-2.05,0.1c-1.57,0.09-1.48,0.76-1.48,2.05v5.58
				c0,1.19,0.05,2.95,0.81,3.96c0.81,1.05,2.38,1.38,3.67,1.38c3.34,0,6.15-1.33,7.67-4.34c0.29-0.67,0.76-1.67,1.62-1.67
				c0.76,0,1.05,0.33,1.05,1.1c0,0.43-0.29,1.67-0.38,2.14l-0.52,3.81c-0.05,0.57-0.14,0.86-0.76,0.86c-3.53,0-7.05-0.19-10.58-0.19
				c-4.58,0-9.15,0.19-13.72,0.19c-0.67,0-1.14-0.14-1.14-0.86c0-0.76,0.71-1.05,1.29-1.14c3.24-0.52,3.15-1.48,3.15-4.34V46.82
				c0-2.81,0.14-4.29-2.91-4.76c-0.62-0.1-1.52-0.33-1.52-0.71c0-0.76,0.48-1.14,1.14-1.14c2.86,0,5.62,0.19,8.48,0.19
				c4.96,0,9.91-0.19,14.92-0.19c1.05,0,0.81,0.81,0.81,1.67v3.86c0,0.71,0.14,1.48-0.95,1.48c-0.71,0-1.14-0.76-1.48-1.29
				c-0.57-0.91-1.38-1.76-2.19-2.48c-1-0.91-2.48-0.95-3.76-0.95c-0.81,0-3.43,0-4.15,0.43c-0.57,0.33-0.52,1.62-0.52,2.19V50.97z"
				/>
			<path class="st3" d="M412.41,46.68c0-2.81,0.33-4.15-2.72-4.62c-0.62-0.1-1.52-0.05-1.52-0.86c0-0.76,0.48-1,1.14-1
				c2,0,4.1,0.19,6.1,0.19c3.43,0,6.86-0.19,10.25-0.19c2.48,0,5.05,0.14,7.2,1.57c2.43,1.52,3.72,3.91,3.72,6.77
				c0,2.29-1,4.62-2.53,6.34c-1.81,2-4.24,2.86-6.91,2.86c-1.43,0-2.33-0.24-3.67-0.62c-0.52-0.19-2.1-0.67-2.62-0.67
				c-0.86,0-0.57,0.67-0.57,1.29v5.91c0,2.81-0.19,3.96,2.81,4.43c0.62,0.09,1.53,0.24,1.53,1.1c0,0.71-0.52,0.91-1.14,0.91
				c-2.48,0-4.86-0.19-7.34-0.19c-2.29,0-4.57,0.19-6.86,0.19c-0.67,0-1.14-0.19-1.14-0.91c0-0.76,0.71-1,1.29-1.1
				c3.14-0.52,3-1.33,3-4.43V46.68z M420.27,52.64c0,0.57-0.05,1.48,0.29,1.71c0.62,0.48,1.81,0.67,2.62,0.67
				c3.76,0,5.38-3.19,5.38-6.58c0-3.14-2.14-6.38-5.62-6.38c-1.14,0-2.19,0.33-2.48,1.43c-0.33,1.29-0.19,2.76-0.19,4.1V52.64z"/>
			<path class="st3" d="M449.05,50.97c0,1.43-0.1,2.24,1.57,2.24c1,0,3.1,0,4-0.19c1.33-0.24,1.91-1.29,2.29-2.53
				c0.19-0.62,0.52-1.57,1.38-1.57c0.76,0,0.95,0.57,0.95,1.24c-0.1,1.33-0.1,2.76-0.19,4.1c0,1.33,0.09,2.76,0.19,4.1
				c0,0.62-0.19,1.33-1,1.33c-2.29,0-0.62-4.57-5.67-4.57l-2.05,0.1c-1.57,0.09-1.48,0.76-1.48,2.05v5.58
				c0,1.19,0.05,2.95,0.81,3.96c0.81,1.05,2.38,1.38,3.67,1.38c3.34,0,6.15-1.33,7.67-4.34c0.29-0.67,0.76-1.67,1.62-1.67
				c0.76,0,1.05,0.33,1.05,1.1c0,0.43-0.29,1.67-0.38,2.14l-0.52,3.81c-0.05,0.57-0.14,0.86-0.76,0.86c-3.53,0-7.05-0.19-10.58-0.19
				c-4.58,0-9.15,0.19-13.72,0.19c-0.67,0-1.14-0.14-1.14-0.86c0-0.76,0.71-1.05,1.29-1.14c3.24-0.52,3.15-1.48,3.15-4.34V46.82
				c0-2.81,0.14-4.29-2.91-4.76c-0.62-0.1-1.52-0.33-1.52-0.71c0-0.76,0.48-1.14,1.14-1.14c2.86,0,5.62,0.19,8.48,0.19
				c4.96,0,9.91-0.19,14.92-0.19c1.05,0,0.81,0.81,0.81,1.67v3.86c0,0.71,0.14,1.48-0.95,1.48c-0.71,0-1.14-0.76-1.48-1.29
				c-0.57-0.91-1.38-1.76-2.19-2.48c-1-0.91-2.48-0.95-3.76-0.95c-0.81,0-3.43,0-4.15,0.43c-0.57,0.33-0.52,1.62-0.52,2.19V50.97z"
				/>
		</g>
		<g>
			<circle class="st3" cx="341.65" cy="34.31" r="4.39"/>
		</g>
	</g>
	<g>
		<g>
			<ellipse class="st3" cx="253.06" cy="87.87" rx="4.63" ry="3.68"/>
		</g>
		<g>
			<ellipse class="st3" cx="239.78" cy="87.87" rx="4.63" ry="3.68"/>
		</g>
		<g>
			<g>
				<path class="st3" d="M258.85,113.95c0,3.29,0.05,6.15-2.81,8.48c-2.67,2.14-6.1,2.76-9.48,2.76c-3.15,0-6.86-0.52-9.53-2.14
					c-3.43-2.1-3.91-5.05-3.91-8.72v-13.01c0-2.91,0.29-4.15-2.76-4.67c-0.57-0.1-1.53-0.14-1.53-0.95c0-0.76,0.48-0.91,1.14-0.91
					c2.48,0,4.86,0.19,7.34,0.19c2.29,0,4.58-0.19,6.81-0.19c0.67,0,1.19,0.14,1.19,0.91c0,0.76-0.76,0.86-1.33,0.95
					c-3.24,0.52-3,1.48-3,4.67v10.48c0,1.95-0.05,5.81,0.67,7.48c1.1,2.81,3.91,3.86,6.72,3.86c2.48,0,5.15-0.62,6.72-2.67
					c1.57-1.95,1.48-4.19,1.48-6.53v-12.1c0-1.05,0.05-2.81-0.43-3.81c-0.52-1-1.48-1.24-2.53-1.38c-0.76-0.1-1.86,0.19-1.86-0.91
					c0-0.95,0.91-0.95,1.62-0.95c1.43,0,2.86,0.09,4.29,0.09c1.38,0,2.81-0.09,4.24-0.09c0.57,0,1.1,0.29,1.1,0.95
					c0,0.95-1,0.81-1.72,0.91c-1.1,0.14-1.76,0.33-2.14,1.52c-0.24,0.86-0.29,2.53-0.29,3.38V113.95z"/>
				<path class="st3" d="M292.25,101.65c0-0.95,0-2.53-0.38-3.38c-0.52-1.14-1.48-1.48-2.57-1.62c-0.81-0.1-1.81,0.19-1.81-0.86
					c0-1,1.05-1,1.76-1c1.43,0,2.81,0.09,4.24,0.09c1.38,0,2.81-0.09,4.19-0.09c0.71,0,1.33,0.14,1.33,0.95
					c0,1.14-1.62,0.81-2.43,0.91c-2.24,0.29-1.95,2.57-1.95,4.43v22.59c0,1.33,0.24,2.19-1.38,2.19c-1.19,0-1.81-1-2.48-1.86
					l-18.82-23.49v15.73c0,1.14,0,3.62,0.33,4.62c0.48,1.43,1.48,1.72,2.76,1.81c0.67,0.05,2-0.05,2,1c0,0.81-0.76,1-1.43,1
					c-1.52,0-2.95-0.19-4.48-0.19c-1.52,0-3.05,0.19-4.53,0.19c-0.67,0-1.29-0.24-1.29-1c0-1.05,1.19-0.95,1.95-1
					c1.05-0.05,1.62-0.38,2-1.43c0.52-1.48,0.43-4,0.43-5.62V100.8c0-1.86,0.19-4-2.19-4.15c-0.76-0.05-1.86,0.05-1.86-1
					c0-0.86,0.95-0.86,1.62-0.86h8.39c1.91,0,1.76,0.09,2.95,1.57l13.63,16.87V101.65z"/>
				<path class="st3" d="M314.21,118.24c0,2.81-0.19,3.96,2.81,4.43c0.62,0.09,1.52,0.24,1.52,1.1c0,0.71-0.52,0.91-1.14,0.91
					c-2.48,0-4.86-0.19-7.34-0.19c-2.29,0-4.58,0.19-6.86,0.19c-0.67,0-1.14-0.19-1.14-0.91c0-0.76,0.71-1,1.29-1.1
					c3.15-0.52,3-1.33,3-4.43v-16.92c0-2.91,0.29-4.15-2.76-4.67c-0.57-0.1-1.52-0.14-1.52-0.95c0-0.76,0.48-0.91,1.14-0.91
					c2.48,0,4.86,0.19,7.34,0.19c2.29,0,4.57-0.19,6.81-0.19c0.67,0,1.19,0.14,1.19,0.91c0,0.76-0.76,0.86-1.33,0.95
					c-3.24,0.52-3,1.48-3,4.67V118.24z"/>
				<path class="st3" d="M344.85,101.37c0.38-0.86,0.91-2.24,0.91-3.05c0-1.1-0.86-1.57-1.76-1.67c-0.81-0.1-2.1,0.19-2.1-0.95
					c0-0.86,0.86-0.91,1.52-0.91c1.38,0,2.72,0.09,4.1,0.09c1.33,0,2.72-0.09,4.05-0.09c0.67,0,1.33,0.19,1.33,1
					c0,0.91-1.24,0.76-1.91,0.86c-2.1,0.29-2.53,2.19-3.34,3.96l-9.86,23.3c-0.29,0.81-0.52,1.29-1.48,1.29
					c-1.38,0-1.43-0.67-1.91-1.81l-10.01-23.11c-0.33-0.81-0.95-2.19-1.48-2.86c-0.52-0.62-1.14-0.67-1.95-0.76
					c-0.67-0.05-1.14-0.24-1.14-1.05c0-0.95,1.14-0.81,1.81-0.81c2.29,0,4.48,0.19,6.77,0.19c1.81,0,3.72-0.19,5.53-0.19
					c0.67,0,1.91-0.1,1.91,0.86c0,1.24-1.62,0.91-2.48,1c-0.52,0.05-1.14,0.48-1.14,1.14c0,0.57,0.38,1.43,0.62,2l6.39,15.25
					L344.85,101.37z"/>
				<path class="st3" d="M366.54,105.56c0,1.43-0.1,2.24,1.57,2.24c1,0,3.1,0,4-0.19c1.33-0.24,1.91-1.29,2.29-2.53
					c0.19-0.62,0.52-1.57,1.38-1.57c0.76,0,0.95,0.57,0.95,1.24c-0.1,1.33-0.1,2.76-0.19,4.1c0,1.33,0.09,2.76,0.19,4.1
					c0,0.62-0.19,1.33-1,1.33c-2.29,0-0.62-4.57-5.67-4.57l-2.05,0.1c-1.57,0.09-1.48,0.76-1.48,2.05v5.58
					c0,1.19,0.05,2.95,0.81,3.96c0.81,1.05,2.38,1.38,3.67,1.38c3.34,0,6.15-1.33,7.67-4.34c0.29-0.67,0.76-1.67,1.62-1.67
					c0.76,0,1.05,0.33,1.05,1.1c0,0.43-0.29,1.67-0.38,2.14l-0.52,3.81c-0.05,0.57-0.14,0.86-0.76,0.86
					c-3.53,0-7.05-0.19-10.58-0.19c-4.58,0-9.15,0.19-13.72,0.19c-0.67,0-1.14-0.14-1.14-0.86c0-0.76,0.71-1.05,1.29-1.14
					c3.24-0.52,3.15-1.48,3.15-4.34v-16.92c0-2.81,0.14-4.29-2.91-4.76c-0.62-0.1-1.52-0.33-1.52-0.71c0-0.76,0.48-1.14,1.14-1.14
					c2.86,0,5.62,0.19,8.48,0.19c4.96,0,9.91-0.19,14.92-0.19c1.05,0,0.81,0.81,0.81,1.67v3.86c0,0.71,0.14,1.48-0.95,1.48
					c-0.71,0-1.14-0.76-1.48-1.29c-0.57-0.91-1.38-1.76-2.19-2.48c-1-0.91-2.48-0.95-3.76-0.95c-0.81,0-3.43,0-4.15,0.43
					c-0.57,0.33-0.52,1.62-0.52,2.19V105.56z"/>
				<path class="st3" d="M411.33,119.43c0.91,1.81,1.14,2.81,3.24,3.24c0.57,0.14,1,0.33,1,1c0,0.81-0.81,0.91-1.43,0.91
					c-1.33,0-2.62-0.1-3.96-0.1c-1.33,0-2.62,0.1-3.96,0.1c-1.1,0-1.19-0.57-1.62-1.53l-4.38-8.72c-0.48-0.95-1.43-2.86-2.19-3.53
					c-0.43-0.43-1.05-0.48-1.62-0.48c-0.91,0-0.67,0.62-0.67,1.57v6.34c0,2.81-0.19,3.96,2.81,4.43c0.62,0.09,1.52,0.24,1.52,1.1
					c0,0.71-0.52,0.91-1.14,0.91c-2.48,0-4.86-0.19-7.34-0.19c-2.29,0-4.57,0.19-6.86,0.19c-0.67,0-1.14-0.19-1.14-0.91
					c0-0.76,0.71-1,1.29-1.1c3.15-0.52,3-1.33,3-4.43v-16.97c0-2.81,0.29-4.15-2.62-4.62c-0.62-0.1-1.52-0.05-1.52-0.86
					c0-0.76,0.52-1,1.24-1c2.19,0,4.38,0.19,6.58,0.19c3.72,0,7.34-0.19,11.01-0.19c2.05,0,4.29,0.24,5.96,1.48
					c1.81,1.38,2.81,3.48,2.81,5.81c0,4.58-4,6.62-8.1,7.01c2.72,0.24,3.81,2,4.96,4.19L411.33,119.43z M395.74,106.28
					c0,1.19-0.29,2.14,1,2.14c1.43,0,2.95-0.24,4.15-1.14c1.48-1.05,2.24-2.91,2.24-4.67c0-3.05-1.91-5.96-5.24-5.96
					c-0.71,0-2,0.29-2.14,0.95c-0.1,0.52,0,1.67,0,2.24V106.28z"/>
				<path class="st3" d="M436.82,100.65c0,0.76,0.09,1.81-0.95,1.81c-0.81,0-1.1-0.67-1.29-1.29c-0.91-2.67-2.33-5.19-5.48-5.19
					c-2.48,0-5.39,1.53-5.39,4.29c0,2.53,2.34,3.48,4.38,4.15l2.43,0.81c4.77,1.53,8.53,3.96,8.53,9.48c0,3-1.57,5.72-3.81,7.62
					c-2.48,2.05-5.58,2.86-8.77,2.86c-2.29,0-6-0.57-8.05-1.57c-1.52-0.76-1.38-1.38-1.38-2.96v-2.62c0-0.76-0.19-2.57,0.95-2.57
					s1.38,1.43,1.62,2.24c0.43,1.52,0.76,2.81,1.91,3.96c1.33,1.29,3.19,1.72,4.96,1.72c3,0,6.48-1.62,6.48-5.05
					c0-3.86-4.15-5-7.1-6.19c-3.76-1.57-8.39-3.72-8.39-8.48c0-6.29,6.91-9.63,12.39-9.63c1.67,0,4.72,0.48,6.2,1.24
					c0.91,0.48,0.76,1.24,0.76,2.14V100.65z"/>
				<path class="st3" d="M451.4,118.24c0,2.81-0.19,3.96,2.81,4.43c0.62,0.09,1.52,0.24,1.52,1.1c0,0.71-0.52,0.91-1.14,0.91
					c-2.48,0-4.86-0.19-7.34-0.19c-2.29,0-4.58,0.19-6.86,0.19c-0.67,0-1.14-0.19-1.14-0.91c0-0.76,0.71-1,1.29-1.1
					c3.15-0.52,3-1.33,3-4.43v-16.92c0-2.91,0.29-4.15-2.76-4.67c-0.57-0.1-1.52-0.14-1.52-0.95c0-0.76,0.48-0.91,1.14-0.91
					c2.48,0,4.86,0.19,7.34,0.19c2.29,0,4.57-0.19,6.81-0.19c0.67,0,1.19,0.14,1.19,0.91c0,0.76-0.76,0.86-1.33,0.95
					c-3.24,0.52-3,1.48-3,4.67V118.24z"/>
				<path class="st3" d="M474.46,118.24c0,2.81-0.19,3.96,2.81,4.43c0.62,0.09,1.52,0.24,1.52,1.1c0,0.71-0.52,0.91-1.14,0.91
					c-2.48,0-4.86-0.19-7.34-0.19c-2.29,0-4.57,0.19-6.86,0.19c-0.67,0-1.14-0.19-1.14-0.91c0-0.76,0.71-1,1.29-1.1
					c3.15-0.52,3-1.33,3-4.43V98.13c-0.05-1.33,0-1.38-1.33-1.38c-3.24,0-4.53,1.29-6.29,3.86c-0.38,0.57-1.19,1.67-1.95,1.67
					c-0.62,0-0.86-0.48-0.86-1.05c0-0.33,0.14-0.71,0.24-1.05l1.52-5.58c0.19-0.71,0.38-1.62,1.29-1.62c0.52,0,0.81,0.24,0.95,0.71
					c0.43,1.33,0.76,1.1,2.1,1.1h17.11c1.48,0,2.67,0.14,3.53-1.24c0.24-0.43,0.57-0.91,1.14-0.91c1.1,0,0.91,0.91,0.81,1.71
					l-0.62,6.1c-0.09,0.76-0.05,1.95-1.05,1.95c-0.81,0-1.24-0.76-1.48-1.43c-1.38-3.43-2-4.29-5.96-4.29
					c-1.24,0-1.29,0.14-1.29,1.38V118.24z"/>
				<path class="st3" d="M499.38,105.56c0,1.43-0.1,2.24,1.57,2.24c1,0,3.1,0,4-0.19c1.33-0.24,1.91-1.29,2.29-2.53
					c0.19-0.62,0.52-1.57,1.38-1.57c0.76,0,0.95,0.57,0.95,1.24c-0.1,1.33-0.1,2.76-0.19,4.1c0,1.33,0.09,2.76,0.19,4.1
					c0,0.62-0.19,1.33-1,1.33c-2.29,0-0.62-4.57-5.67-4.57l-2.05,0.1c-1.57,0.09-1.48,0.76-1.48,2.05v5.58
					c0,1.19,0.05,2.95,0.81,3.96c0.81,1.05,2.38,1.38,3.67,1.38c3.34,0,6.15-1.33,7.67-4.34c0.29-0.67,0.76-1.67,1.62-1.67
					c0.76,0,1.05,0.33,1.05,1.1c0,0.43-0.29,1.67-0.38,2.14l-0.52,3.81c-0.05,0.57-0.14,0.86-0.76,0.86
					c-3.53,0-7.05-0.19-10.58-0.19c-4.58,0-9.15,0.19-13.72,0.19c-0.67,0-1.14-0.14-1.14-0.86c0-0.76,0.71-1.05,1.29-1.14
					c3.24-0.52,3.15-1.48,3.15-4.34v-16.92c0-2.81,0.14-4.29-2.91-4.76c-0.62-0.1-1.52-0.33-1.52-0.71c0-0.76,0.48-1.14,1.14-1.14
					c2.86,0,5.62,0.19,8.48,0.19c4.96,0,9.91-0.19,14.92-0.19c1.05,0,0.81,0.81,0.81,1.67v3.86c0,0.71,0.14,1.48-0.95,1.48
					c-0.71,0-1.14-0.76-1.48-1.29c-0.57-0.91-1.38-1.76-2.19-2.48c-1-0.91-2.48-0.95-3.76-0.95c-0.81,0-3.43,0-4.15,0.43
					c-0.57,0.33-0.52,1.62-0.52,2.19V105.56z"/>
				<path class="st3" d="M535.88,100.65c0,0.76,0.09,1.81-0.95,1.81c-0.81,0-1.1-0.67-1.29-1.29c-0.91-2.67-2.33-5.19-5.48-5.19
					c-2.48,0-5.39,1.53-5.39,4.29c0,2.53,2.34,3.48,4.38,4.15l2.43,0.81c4.77,1.53,8.53,3.96,8.53,9.48c0,3-1.57,5.72-3.81,7.62
					c-2.48,2.05-5.58,2.86-8.77,2.86c-2.29,0-6-0.57-8.05-1.57c-1.52-0.76-1.38-1.38-1.38-2.96v-2.62c0-0.76-0.19-2.57,0.95-2.57
					s1.38,1.43,1.62,2.24c0.43,1.52,0.76,2.81,1.91,3.96c1.33,1.29,3.19,1.72,4.96,1.72c3,0,6.48-1.62,6.48-5.05
					c0-3.86-4.15-5-7.1-6.19c-3.76-1.57-8.39-3.72-8.39-8.48c0-6.29,6.91-9.63,12.39-9.63c1.67,0,4.72,0.48,6.2,1.24
					c0.91,0.48,0.76,1.24,0.76,2.14V100.65z"/>
				<path class="st3" d="M550.46,118.24c0,2.81-0.19,3.96,2.81,4.43c0.62,0.09,1.52,0.24,1.52,1.1c0,0.71-0.52,0.91-1.14,0.91
					c-2.48,0-4.86-0.19-7.34-0.19c-2.29,0-4.58,0.19-6.86,0.19c-0.67,0-1.14-0.19-1.14-0.91c0-0.76,0.71-1,1.29-1.1
					c3.15-0.52,3-1.33,3-4.43v-16.92c0-2.91,0.29-4.15-2.76-4.67c-0.57-0.1-1.52-0.14-1.52-0.95c0-0.76,0.48-0.91,1.14-0.91
					c2.48,0,4.86,0.19,7.34,0.19c2.29,0,4.57-0.19,6.81-0.19c0.67,0,1.19,0.14,1.19,0.91c0,0.76-0.76,0.86-1.33,0.95
					c-3.24,0.52-3,1.48-3,4.67V118.24z"/>
			</g>
			<g>
				<circle class="st3" cx="309.14" cy="88.97" r="4.39"/>
			</g>
			<g>
				<circle class="st3" cx="447.2" cy="89.12" r="4.39"/>
			</g>
			<g>
				<circle class="st3" cx="546.11" cy="89.12" r="4.39"/>
			</g>
		</g>
	</g>
</g>
</svg>
